<mxfile host="app.diagrams.net" agent="Mozilla/5.0 (Macintosh; Intel Mac OS X 10_15_7) AppleWebKit/537.36 (KHTML, like Gecko) Chrome/135.0.0.0 Safari/537.36" version="26.2.14">
  <diagram name="Page-1" id="6cuRLGPWIfewVJrIG14D">
    <mxGraphModel grid="0" page="1" gridSize="10" guides="1" tooltips="1" connect="1" arrows="1" fold="1" pageScale="1" pageWidth="1169" pageHeight="827" background="light-dark(#FFFFFF,#FFFFFF)" math="0" shadow="0">
      <root>
        <mxCell id="0" />
        <mxCell id="1" parent="0" />
        <mxCell id="3mXTTDO88YAGcUnz2wc8-61" value="" style="edgeStyle=orthogonalEdgeStyle;rounded=0;orthogonalLoop=1;jettySize=auto;html=1;" edge="1" parent="1" source="3mXTTDO88YAGcUnz2wc8-5" target="3mXTTDO88YAGcUnz2wc8-8">
          <mxGeometry relative="1" as="geometry" />
        </mxCell>
        <mxCell id="3mXTTDO88YAGcUnz2wc8-5" value="" style="verticalLabelPosition=bottom;html=1;verticalAlign=top;align=center;strokeColor=none;fillColor=#00BEF2;shape=mxgraph.azure.mobile;pointerEvents=1;" vertex="1" parent="1">
          <mxGeometry x="19.5" y="325" width="32.5" height="59" as="geometry" />
        </mxCell>
        <mxCell id="3mXTTDO88YAGcUnz2wc8-6" value="&lt;font style=&quot;font-size: 8px;&quot;&gt;Mobile App&lt;/font&gt;" style="text;html=1;align=center;verticalAlign=middle;resizable=0;points=[];autosize=1;strokeColor=none;fillColor=none;" vertex="1" parent="1">
          <mxGeometry x="7" y="390" width="58" height="26" as="geometry" />
        </mxCell>
        <mxCell id="3mXTTDO88YAGcUnz2wc8-62" style="edgeStyle=orthogonalEdgeStyle;rounded=0;orthogonalLoop=1;jettySize=auto;html=1;entryX=0;entryY=0.5;entryDx=0;entryDy=0;flowAnimation=1;exitX=0.25;exitY=0;exitDx=0;exitDy=0;" edge="1" parent="1" source="3mXTTDO88YAGcUnz2wc8-8" target="3mXTTDO88YAGcUnz2wc8-18">
          <mxGeometry relative="1" as="geometry" />
        </mxCell>
        <mxCell id="3mXTTDO88YAGcUnz2wc8-83" style="edgeStyle=orthogonalEdgeStyle;rounded=0;orthogonalLoop=1;jettySize=auto;html=1;exitX=0.792;exitY=0.036;exitDx=0;exitDy=0;exitPerimeter=0;flowAnimation=1;" edge="1" parent="1" source="3mXTTDO88YAGcUnz2wc8-8" target="3mXTTDO88YAGcUnz2wc8-56">
          <mxGeometry relative="1" as="geometry" />
        </mxCell>
        <mxCell id="3mXTTDO88YAGcUnz2wc8-8" value="KONG" style="rounded=1;whiteSpace=wrap;html=1;direction=south;" vertex="1" parent="1">
          <mxGeometry x="129.5" y="38" width="55" height="633" as="geometry" />
        </mxCell>
        <mxCell id="3mXTTDO88YAGcUnz2wc8-9" value="Api gateway" style="text;html=1;align=center;verticalAlign=middle;resizable=0;points=[];autosize=1;strokeColor=none;fillColor=none;" vertex="1" parent="1">
          <mxGeometry x="118" y="5" width="83" height="26" as="geometry" />
        </mxCell>
        <mxCell id="3mXTTDO88YAGcUnz2wc8-33" style="edgeStyle=orthogonalEdgeStyle;rounded=0;orthogonalLoop=1;jettySize=auto;html=1;flowAnimation=1;" edge="1" parent="1" source="3mXTTDO88YAGcUnz2wc8-18" target="3mXTTDO88YAGcUnz2wc8-32">
          <mxGeometry relative="1" as="geometry" />
        </mxCell>
        <mxCell id="3mXTTDO88YAGcUnz2wc8-18" value="Auth Service" style="rounded=1;whiteSpace=wrap;html=1;" vertex="1" parent="1">
          <mxGeometry x="303" y="77" width="155" height="63" as="geometry" />
        </mxCell>
        <mxCell id="3mXTTDO88YAGcUnz2wc8-36" style="edgeStyle=orthogonalEdgeStyle;rounded=0;orthogonalLoop=1;jettySize=auto;html=1;entryX=0.5;entryY=0;entryDx=0;entryDy=0;flowAnimation=1;" edge="1" parent="1" source="3mXTTDO88YAGcUnz2wc8-32" target="3mXTTDO88YAGcUnz2wc8-35">
          <mxGeometry relative="1" as="geometry" />
        </mxCell>
        <mxCell id="3mXTTDO88YAGcUnz2wc8-32" value="" style="shape=image;verticalLabelPosition=bottom;labelBackgroundColor=default;verticalAlign=top;aspect=fixed;imageAspect=0;image=data:image/png,iVBORw0KGgoAAAANSUhEUgAAAOEAAADhCAMAAAAJbSJIAAAA4VBMVEX///+04eQAdKMAcqL///0AcKEAdKEAbqCz4uP//v8AbJ+z4uQAdaSm2t+s3uIAcqQAbqMAap8Adaa14eYAZ5wAbJy75uYAcZ7v+fiv4eP1+vsAaZqx4Oa75uiy4+IAdqF2tsjS7e3j8PRfmrpgqMLI3+ZvsMaPytihxNe0zt7h8vKHw9JElrYshqsgfqlcpMBspMCUvtM7ibTR5elUmLyIts6z0t6kydhUl7Idf6e/2uZ7qsQ6hrHi9fOb0tra7fGlvdA0jq97uMaGvM/H5+d2qcdUoLhPkbqDs8bf6PFvpMaRbHTiAAAYSklEQVR4nO1dCXeiSNcGimJXBKRUIpIYl8QFTWL2aTNO7O7p+f8/6CvMZhUFCJrF98tzzszpk4iph7p1l7q3bnHcN77xDRKiKOL/VE7lxM8eyrsCs/zfpdjudu/uut2Hzx7HriFG0tm+vg+rVc3SMKrV8L+TP3gq8c/Vzx7dTiC2z85dTQbCKwBw4fisvVqZ/wN4+E/WgGBIbwQNzFECUDu+2PsFibVK+78qXJs9AvBg1say+tmj3AJ49GdyLYFeBBtULvdaUMX6TBPsFIZYXrVx+7OHWRxiFyTJ5xrAwd2ealSVu9KAlElQkgTt7/0UVPHKEqTsOTQlW7JOPnuw+YHVx92BkS2iz6he753ZEMWBvDlBAVQu9o9hCOzsRfhGUfI+e8j5oHI/ZQYPCasVw7ADWzLp31RuuP0yjN0Kg6AJXUuzLLdiSPT0BqZ1tV8Mb+NKFGju8dlVt3t1NnU1eg4xbsV9sorYUJCwBe38+vXX4tVvDdCKyD3ZnzlUxXNqCo2afC2+hUr4X1cGPY3m7acOOhfEPwfU6KHxQCoSHBKPIfUWrO6njTg37gk9AwQwjtkCzJeiaIPjvVGnYkgMPTBhO65FRNEjBdWUqnujay5IVWlY1+yh32mknFrdfZnDE9Jhq43ZHxO5Y0h8UL782HEWx32FMOjYljM/pnJdjQiP4fG++N9jc50hAB573PinLmEVwV97IaV4yZkCMe7fyQrkmLSbwNsHVaOqXNUI1lfXNHlmLmsERXkvAgzsr1TB+vLC+iOR4YlMLMRqgjx/LeAxVgkNCTHDet2r4/8wIgoq9+LBnZEx1sHeMBTWNQ28QTrP8w0MXlcUxV8eDQb1pw39yxphOfdDSlWRMwnRA38pOmaGSeq87vAR2Sb+H+apcjNS05j7MYcqthYERbcUzWEcjbLvCntnLVRVHBxNZGJqaj2fyVBBQ42U5+nXt/hi/cjh9cMKuZMfsudQ8cdAorTuVwaePfWHv1picyryk3uIVyh6jqKjQ0KTSrb7pZNtIuc9KGV+NVvIJvNNktZHTXoCm2hORvm2VPlsEqnwjpyyo/BOpCzRhFiHhgGkOaJlFJWoLX+jNuW+aICI5dM7aqyPfk4FflhN9pHyZDJWE4i1zDyg93Lk/rKeQREbUfXJWxCfSlc+RKrxH3lQCCHUHXoPxhbkThO9rkYF8b1abFM4dBqtZT1rKYpe9/T0779PT7te/SPoRX9y4Dd0UpEofWo3EQdJctApIX8FVOqFUKB3VLVHFC3PozSG3cuZoWmujOFaB+bN5ftvXomit2zEjYG/MGNbwgBa4aR3eNib3FqQ/qVhC7dKtIb1hjPA00gm97Gaxj+4uDct0tIC2YL3F1zs87tDZN/5RswS4HHSBuNJDgWIX36F+Svbmr98TWPp0SoHL77ub5eVChGge373bgsSL/VlWXdaTowhjzqsxIWEnTRbYGX2JfOXv2IYeedNfkD/qfaiWrNtVkkA1tTaefc98uRRbdqA7axgtJyxaaTWKFAzERKvqXyE5fLlPeKVcH+QmkwG1an3DtMocqSJoCg2AzNHitSkDCaW1BeKIte+dRmZHOJxOfizc39IFJeN+AJ8geK0+rXN59DqI4d63Hm1BVcyMDJelmQDece1ACJXZ6w+AqgPwQaCGo1dHsZcnpWkrlTkY8x9YJOsPu6UoFrXE9fgyzygfsyqs4Bf/yODIO80jiIP5kzbTBQM07rcpb4ZlHk+g6ITeWYsjUqNDIK407p6Q05jqXLXVYmpQuMvKjB2VrSiRjomS0afBqmPtCjETVlFtrYoswNkjPLyzgqSn6URWHc70qjiUdnJktGnaeTR0HDTBgXBoZ+sr1rNmrFB3dgLDBt6u4lOHsoMN4YJvYmanbiP9gwA3UnJT35XLez8bc4Py4MBj3ewFNVNRfQFqNyxK6a0XkErCQGQgGsel5gr8PXJIa1GA9sQJKgdWNUDDdYCQaJlWDvdmqCoDhrOhjP4OlL+cWG7lbfRmECW7fNHHiE99atiFR2mgd33+6vuw0P39D60IKMYYPt1+KORpURp4BlHqDycrA3EmAxLCDmOkkbQP6zEhLQ66q7C39XL7s6sWHmudZ1FIB2qWOdziegbUOMtIpTsZP35AoVHBunKgAAGd+R47kKZ3CqQbGO7rRCRc1J80fQRl9cYCqXszzeHskkss8BaeKQxwD75uEIuRcm628ZBFbllpqHfFUMejSBZHAZpgpG0egvCqZAkOC1MD4dL6hG9KfiODBXClTGwkLKyGqIXBETKWTDrhaVU5X40Wx/GEPUJUwGM6h3LX8HBv2UQDA+6RaVUVD2FFc6/F8Me4ShIlQV7fYncDBKzLZ8VJIixLEyvCMMFyVC7SxpWVyMTQbPCmiaKJz6QIWXujcTsqRqSCqlwBaCnFNSixRg2SH8FjGO7U6+g8qxhIXo4YloWtYTFGJaIUQtwoieWolySOazk2U5nOGg5xRXp9gzlQ32Z5KycuDtgKIrYzSpuDGmGRm6GoIcagwQVcrKLORTTdg6zoWM3s2ysz6GetapL1Dqc+YqfwPAnoXVBWIihV9RZe2aIRbxhEp43yvhCPSCrT8eIbyUom4VMMixCkNvCXcPw/Wb/52htEOaiN8wgicbkHAolHGkxJ7FNprHAeQF+IlfMFEai6CM07401DRKiBKFsjTtzhJ5LbBgMR0TsJ1UO/RYfT71h7XPikjVYRVxv9agQQRwBKajcu4WyKTG22yo1eNvDM8mmiHpkqgkYeMaVmDbFZiwk0+VakRjYKyijOipNhAoenMQ6AyWZgq2ByTwhGJ4TWVZJgB3EN3/QFFXuzCX3U6t/8ntt4kMhRar75Y4sZ+wGAmD9KsUWJJZuxb+lPur2/QapTr1oK4NON4cFYny1UEjR8oeCnL1dbQtmrcfT1ShNH81D+qMmpkgcGlZF8YHejEor9kzEjyJ6xi8vrE0O6BmGBLRxiVqNaD6q0LNvC2CIECFcXFc2qZdYvci77Y0/7ifpu2REaRm4ef4QulFy5kVWHbx8XZZ0A3dUEt/AtWOZU8lc5J5AkaszShGygHoZx9QpmPLktRYFKZ1awja5KcHpxbPLIl78BLF5lrT81RliZO1zbgHzaBL72+mQBHn0JCk+OjTw7Cc9bkArmN1fnl0eh5YcT0/CWW6C2OfOr2b0MbNsIh1wXNZ55A/DzGdBVNLBOOqPV732UCDAH+Q2FYguidoIUmWso/445+QTDA3trEhm5ig3wVEOHfMGQ4KLkSbEjghvjiDarSowh/nX4GaJdwZgbO6lwDakzXLA2OsxCrXYqOclOCywBpPHXZENYaNT75IEYAF/jcsfN5VSxAzgkEKGie1q4oByp++mJcnXv/ygyOE+lRP9zKILcgoXzEIhLGhQux1Neo+Pvc4orLhYLaQPOOpDJI9KyJ/bQMgSVCAZwL4oMoH4nbRyOTRoqDEJ1irj3lzxcbCI4TdLh+P4miMhmfJi7kcp1NItzMrmR7VtBdvciPWmkoNhq0FX/j7BXfRRlNCOtJbDK4ru+/ORlTps7RY/oigKj2XoJkt3geq0YBUG9t3ziCi7JFGqBH0U08jY9oUQGAwtYuApccPHtRoN/NEoCmP1grFNCQD3r8KVtGLOXEWZJaLWryZiZY6RM6kw9aRRMQ6V9ZhR0ZWeVBFYKsyQTFc4EwtnRUU1Mxu9Dv+QYSm0jq+zHVsF9ejeC08EOw2fXy+HcHC40Tw0tPjSBdC6PatHgWJRhl4el61JZ96fCKZUlOBXIsWUKigxX6uP+hNDkyGwgYSnHgAAtWp4X0iDrjGs52DYQn3NpAtc5EmqFKCOHIuyXFalIobT8pX5P5NxGAC8KoNwdH/d9rgty0rFdp5cBZpAui0LGKfXbrT8MaSXIhglzbqD1y7y9bLTbrdXUaIoblvIli9xr9DyZgjaPGtvuxTXH3aW4PhbkSKxzMGwFT8qY06YWpQYbY/WTgD209+Kru+w4Dmlri4G5x/aGNpgnpmB4cv0JAaVhAOLrwwbOzxNm1pZRwHHhRuvqDco/sQk3U67tsh4rLHD80B5gkM/VmjHrN+moKM5eZI08mmyGCZnvPPCy+OU8jFbCDfaaPVrZHxkGpqSuvfl7JJhnsgpFhlGp7g3eA4taHuhzVMfaJWPdsgwB8U5naPYZBli+BNaujHDtL+r8DtkmCP1q8+pA84C7KTUcL8B9eioX+6nM9R3xzCP06bPtYBmmGXuV/APaR0s91OtlN78LIa0OcRzuMmDfi/OMFW8lU9iyMcZ/tqIIeoAOkPWT5XuXc5hLl06pwMLME7IYK+jwaNZjbAWgWRlaJrPYliKxetBOZshjolCssMg9tdLH8cwTxmNH9IepjbP1qUKX9KoRKpdQXxa1LZThnnqEamK0E1VDaK3PkxhnG5HlR36NFwuhlPacoMw+ynFodtI2jB9X2Cnfmkuhko8Y+E+Zp+r6NNHvww566nyDmMLP4/nXY5lJOyglbqidF73x7HmCjCtcjFqPtGsr1qp7CQOzrNd6sQXoiR3Yl1NCIZNdFihQ5JamLYMdR/5KHvgm0I9ymMuYtulgSG4qe6J7s/l2E427CU+EhXJDXudm+l0enmym7tOcqW4laYb26U3ghKfcBxTiU7uhfGd+grLGirR5M0PR4ImRwk6/D9Nq1rHJ+0tt9vEdq4kPiO/LZlG4imuJiozOioLQqeJ4ofafOWfcQ3WiDcYwErt/LT4ln7E0MtVDhV3vqN0ipFQm+egUsi6PAFAqYeoR1CjZ1SALQAyQJMMs+baZ1tsTK3Ku3MgrmuiNy33oigqJqtYySTk14BsH7Z4XVlJq+I4inPoJqcbgeZei6vuJ4WQL/eE4lum0YuWx32nRR4X9Z35uJKYoDeESjh87diD5mNNSMnm24K2+CMWPXZ4lIuh4sd2FJ9SfJXF0Pdfw1qsEocLDSTXhdmGAazz+coa6+gQmkJGRQbUrorxw8o0X8mX0kyoxACuPDqcl3Rd50vzwxnQsssVgDWaI4VH7Co++sPaPVfEBxCxqslXtof+SaiZtWs16IIQQ6hsWI1h1yo3JXRDb/+wYViFWoXhd/LUxzEHxVFCpwjbFmwJABzPB1l1GK+PCLKwcYmcoRVsQ3yU81Sl3rzNVXdJIqZONrmL5wXaz0KCOsgppnqrBDarYorDlosXtQnRUeiTIi2xvHwdFKJT5v2CdV/WEJuF4qWJ2B2oPhSxGcvc9aWoD80Nbglahy0ZNXmIdDQMK+lCjg1H9NV4LccaKmCOhVoq5K8vjYq8cy5FLNZw1YcHKY9GarVUADUN20ugWTWGvtIKHAIWc+23rbDqvZNvRdnA7T87iL7Sg4mnNAC0bq7/tOte++F6VmV8zCwS/i8LHFtTSuPNtYYpSW74VmKio+YvWJHMWCBmGDVzUnobWP1ShpSvY7iXua2iyA3yE4x2QTtZLcheYQvWRCGiXlQaVSAt6NhZHZfQ8vWik6jP2e8KuRNpBzB3MIXDy9zdTJ6i2364oWKEwdCn/gSW8wWtkaXKyOfLg7dWdVGxyVQjGALbPS1g948KHa9UeL8nVYJU0yjZgSDDDitL2UL0LiOYId1R6MFNqWimyHkEzstb6v0CVOqYcipFsyL/KsW7DEcvqEz1ngFhi3ca9N6MGN3aQ7TMhkWaghdqpuDg2JVH5Z6QKKsAyKBT8nVmja5Ot1Cy5r7CO3Q4r4p/quTntLsCEUauJBsFHw1HtoYjvLXiSUmyAYSWNBom78eiDnl+eZUyV1gJiykZSRfpmZ23ypQeK+L7nbG9plkxv2A8mTstRU9069GCbB4k9/EPGywJ7JLBGBjlZ8iJ7a1aYug6Qqg1f3vThtDHP3JajpLc9w2Rxw/NIPohu+kAuSMJi53l9rc6y73CescBO7vjQJnceoUjX3HKHtMS/CKvlyrWcaDe2uo8Pl+kawQ5Mx3E60v2qSbqlgy7WE+FLft+FGBokwyjrX66T9Qz/t7FHKoerxdu81WMITmHcg+Vk/IUZF+MlE42qQzz5Wh2wLBMRphwhPwkd+wn6RsYRQhG8u/kOx60LUOdrAoAt61BUsxAune1YroUo14u6rwVYkgd0zSgw9zVxj9rkzFMob4YT9+VpyJ6e4b+L4KhXbtkhkWqyJ2RFh/eF2bobUMwP8N/KL9UrrO7mYnU0aJCfTGe3laBHZstGPIlqoIBTlnWUBTpe3kP2kV77m3ePng3DPkxFZMwGyGLV1RoAcaFe1/iB7ex+0pOr02Plyyy8ktdSBXTyWfblGhgu88X6tqmKIrTWNugDzbo7onFlN7oqZ6t3YKgRreVnFTJGnHJPGAv1w0hqvXGZl2gKTR9Z/1eGUOa+6lVKPxqL2tUo2NnbfbWPh9TvZjRZ99A1Ct5C4oqF3URzk8QoXmHXFVgPOmj1ApinVfmFfqcmAGrs+vn47Dt01kV0PtxgXWx9W0eRw0+zxEFRdFRuRdYkEoiAagFvRKOF5TkvstowkiAAK0qLKbH52aVtTsiF+/P+oLoSoQ8WWHdL00AiO3uRjBlOJr7TxcosdFg59ZMQYZJvX3aW5eCYccC5RFUv2fCKO/COu8rGRBM9OR6fsUfss6YCsHqCnrWb6q7uaBd9HVnM0F10PxWTs33Ahj013rv0EhMKDMhadvL6Aoq528mqE6rJzPlcx1mFL0nf1ts5zsFtfMdndoTVSyom0whunGjqq+MF49Dv8SmBuW6F27cCQbe7vIKzCWfOYu6M9rw/cvjhhNzJJToer06J9ZvN6Now3ArW09BFI+yu+tvvIakytiPHzXVdceLymS9841elHvu7aimdgU1u90nukku6ooBMs6ANfyoVi26SW5azf6G6D6kXV8+/0NPudig5R/m6sMjd3zS9OuNtQ38awAlVufFJ0iCJIMd3xQUQVXrdNJvDQqjDjMNQB6iddPfbAzWokGxPbXok0NvMM3qTcHGJukMsfwkB1OtBBWYlIaSzGC9tUTDIbQGlr7u+UGCxoHu+G7X8vn6h7kfbH2joF5sCoER3SsXhKHhylEmiu4cBCcvpYsOX14y/lp3pmlAsg1DMGxg2wb+ly2YrjZ7xxsCseryoiCIltUWX5ZjrY8k174ZlhsNRS/1fxm1WNEMgKVnKW3og/iek4qVW/3kt3EgywKQosxyza0dGL9P8GS/49Weq9vl4pKqo06NZghgj0f+U9pU8fnHeN/AqK9ghPKS2exCXNkC7+LkfhZKABjh7/uTrrf6xXtf1ekty1R3FqUcc/y1RZmwB35j5BpUbySz1ML8+PdQGlsiuqaTmEP0SNto+VfsNFqsq4kEe3glHn3Bq7lV7ukmy7UJonfJIoI6qZMU3u9QRQzSrb9kJwi/AsSjSAc+qxxKSA1wyzwEQ+WxsV+yffj6jhDVAXppxkudYZPgnO0ZlKgQXjv9ynerR9e9DlD5aYVRqZIZ+9BGy5+QCnWLS3A+DN6R0mzgwJzYYqjM2eFfE801oicR+P1lV+Eroolc+rekMQwTHHTFQdS5rmI9/z8U6mqzkpzCxO4Y2IrekBue5i5j2PeDyJHhXHSqV1/1XHthpjhNbF2c5YN3RhoM7QsaQwZUj2aIbX0z2sNvNpuNRhlbTrQ8GqzIXJN9JKt7wVCNzeF9fXD0gsGgXo9oqJGfqXLUHO4HQwzy9leYdJQFG797wiIC8+trmieEpA1IauWPf0x+ch906RNm5D3A1YukOWxXiX6WYPb17eET/iV32cDPpA+SFzUJ8L+v7LWt447cZjNr7JBP9Kjtxq/tl66jTjYRsJOKy6fUZg6OLfaEIUdv52v/Pns7axC5M3pHtXC51odDPKGbeUTHkUiNKnLXlhn/0J5A9GK7t9aUlr9LzaAub6h8wR2aBGBLHktCy8Hpc0PV1d7Y3W2s4ccOUvAfBlGta/G0oRteXkRemej9OfnLNelutYJWrCv+p0DkxEtWctu1zL9ms3PjoCKBWEtlmVm29nXhJVziAUDC0WUT1PeLIUdfNJUF7W6726Y/HNja5aKo3a9SE/uF441zwJIJR3smoit4s02TpEYtysF/9njzQ+Q2bfgQVVHsjUe6BjzmmRUklGe9wQy02b5sXtDAFP+tmlm3G5nWdNve+J8IkeuCjMUog6v3SsJ/EOr3FjQlmzmTtiFr0/3YBE6ByD0cu7IR80Ij1LSbP4X6rXwpREryz/2BRrcVAlDT/ruIBHS/ZfQF4t3P8CC6XwREVxhCWauG09PPHtROEQVN7dOT6WJ8Gy4W07Ortrf13RtfCzFhXO3pf+Mb3/jGN77xjW984xv/P/B/tZ0Ur2eXVBcAAAAASUVORK5CYII=;" vertex="1" parent="1">
          <mxGeometry x="734" y="150" width="68" height="68" as="geometry" />
        </mxCell>
        <mxCell id="3mXTTDO88YAGcUnz2wc8-43" value="" style="edgeStyle=orthogonalEdgeStyle;rounded=0;orthogonalLoop=1;jettySize=auto;html=1;flowAnimation=1;" edge="1" parent="1" source="3mXTTDO88YAGcUnz2wc8-35" target="3mXTTDO88YAGcUnz2wc8-42">
          <mxGeometry relative="1" as="geometry" />
        </mxCell>
        <mxCell id="3mXTTDO88YAGcUnz2wc8-35" value="User Service" style="rounded=1;whiteSpace=wrap;html=1;" vertex="1" parent="1">
          <mxGeometry x="303.5" y="232" width="155" height="63" as="geometry" />
        </mxCell>
        <mxCell id="3mXTTDO88YAGcUnz2wc8-42" value="" style="shape=image;verticalLabelPosition=bottom;labelBackgroundColor=default;verticalAlign=top;aspect=fixed;imageAspect=0;image=data:image/jpeg,/9j/4AAQSkZJRgABAQAAAQABAAD/2wCEAAkGBxIPEBUQEBMWFhUVFRUXFhUYFxcVFRgXFRIXGBYVFhcYHSggGBolHRUVITEiJSkrLi4uFx8zODMtNygtLisBCgoKDg0OGxAQGy0lICYuLTItKy0tLS0tLS0tLS0tLS0tLS0tLS0tLS0tLS0tLS0tLS0tLS0tLS0tLS0tLS0tLf/AABEIANMA7wMBEQACEQEDEQH/xAAbAAEAAgMBAQAAAAAAAAAAAAAABQYBAgQDB//EAEQQAAEDAgMDCAYFDAEFAAAAAAEAAgMEEQUGIRIxQRMiMlFhcYGxBzRykaHBFEKSstEVFiMkM0NSU3OC0vDhNVRiovH/xAAaAQEAAwEBAQAAAAAAAAAAAAAAAwQFAQIG/8QAMhEAAgIBAgQEBAcAAgMAAAAAAAECAwQFERIhMUETMjNRFCJxgRUjNEJSYZGh8CRTwf/aAAwDAQACEQMRAD8A+4oAgCAIAgCAIAgCAIAgCAIAgCAIAgCAIAgCAIAgCAIAgCAIAgCAIAgCAIAgCAIAgCAwgMXQbmj6hjd7gPEL0oSfREcrYR6s5X4vA3fKwf3Be1RY+iInmULrI8jmCl/ns+0F6+Gt/iefjsf+SMsx+lOgnZ9oI8a3+LHxuP8AyR0x4hE7oyNPiF4dNi/aySORVLpJHuJAdxB8VG4tdiVTT6M2Q9GUAQBAEAQBAEAQBAEAQBAEAQBAEAQBAEBo94aLk2C6lvyR5lJRW8uRA4hm2niOy0mR3U3X4q1Xh2S5vkZl+rU18o83/RGHGq+p/YQ7AO5x/wCVP4GPX5pblJ5mbc/y4bGfyBXTay1Jb2NJ+Vk+Joj5Ynr4HMs9Sex6MyPGdZJZHHw+a8vPf7Yokjosf3TbOpmS6Ubw497j8l5efb9CWOj0d939T0GTaP8Aln7TvxXn4+73JPwjG/iauyZSH6hH9zvxXVqFxz8IxvY5psiU7ui57e4/iva1KzuiN6PV2bOZ2SpGfsKp7e8n5KRahB+aBE9JnHyTNDT4tT6tc2Vo4byffqvSlh2cnyZzw86nmnxI3gzs+I7NXA5h4kA2XJafGS3qluSQ1ScXtbDYsuHYzBUi8UgPZx9yoW49lfmRo05dV3lZ3gqEsmUAQBAEAQBAEAQBAEAQBAEAQAoCIx3Ho6RvO5zz0WDee/sVijHlY/6KGZnQx4+79ivxYdV4gduocY4juYN9u78VbdtNC2it2ZUMfKzXxWPhj7FhwzL9PTjmMBP8TtT8dyp2ZM59WauPp1FPSPMlQ1QPcvJJCyHRZALIDKAIDFkAsg2FkB5T0zJBsvaHDqIBXqM5Re6ZHOqE1tJblXxTJMZPKUzjE8brE2v8vBX6tRkvlt5ozLtLi3xVcmctDmOooniDEGmx0Eo+dt6msxK71x0f4R1ZltEuC/8A0ukMoe0OaQQRcEbllSi4vZmzGSkt0ei8noIAgCAIAgCAIAgCAIAgBQHHi1cKeF8p+qNO08ApKq/EkolfKvVNTmVvK+Fmocayp5znHmA7gOuyuZN3hrw4fcyNOxXe/iLubfQt4as83ttlsjKHQgCAIAgCAIAgCAIAgCA48Tw6OpjMcrQQR4jtCkqulVLiiyG6iFseGSKllmpfRVbqCUksOsRPktPLjG+pXR69zJw5yotdMunYvAWQbhlAEAQBAEAQBAEAQBAEBgoCt5+9TPts81cwPVMfW/0/3RJ5fla6miLd2wB4jQ/FQ5Case5cwZKVEdvYkbqEuGUAQBAEAQBAEAQBAEAQBAYKHGUHNEwOK0oadWlod4u0WziQaw5tmFmTTzIJF/WMbwQBAEAQBAEAQBAEAQBAEBWs/n9TPts81dwPVMfW/wBP90QeEV0uGlomBMEga4OHAkK3dXHJ3ceqM3DuswdlPysvNJVMlaHxuDgeIWTOEoPZn0tV0LY8UGdF15JQgCAIAgCAIAgCAIAgF0BXcyZojpRsM58p0awa2ParuNhSte8uUfcz8vOjUto837FGjo5o66mkqOnNIH24gbW4rZlbXLGnCHYxY1zWRCc+59bXzJ9UEAQBAEAQBAEAQBAEAQBAVn0g+pn22eau6f6pka1+n+6JShpmS0sbHtDgY26H2QoJzcbW4+5bpqjZjxU1vyIGpyxNTu5Shk2eJjO5W45cJrhtRnT022mXHRLb+jEebJYDsVsDm2+u3d/vijw4T51M7DUra3w3wJqhzFTTdGVvcdD8VWni2x7F+rUKLOkiUjkBGhB7ioGmupbU4vozdcPQQBAEAQBActTXxRi75Gt7yF7jTOXlRDK+uK+ZkBX54po+bHtSu4Bo0ursNNtlzlyRSs1OqPKHNkcajEsQ0Y36PEeJ6VvPyVhRxcfnJ8TK/Fl5PT5UTWBZVhpTtn9JJxe7U+HUqmRnWWrh6IuY+BCp8T5shc3/APUqLvH3wrWF+ltKmd+qrL0sg2ggCAIAgCAIAgCAIAgCAICs+kH1M+23zV3A9Ux9a/T/AHRM4P6vF/TZ90Ktd539TQxfRj9DtUZYPKSJrxZwBHURddTknumeZQjJbSSZC1uUqSW5MeyTxboVarzbodyhbplE+230IyTJTmm8FTI3sJJ+asLUE/PFMqvSpR51zZ5nB8UZ0Klrh1Em/wB1e/Hw5dYs58LnR6TTG3jDODHe78U2wn7nN9QXsY+n4x/IZ7m/5Iq8H3Z3xtQ/ijArMZP7pg8B/ku+Hgr9zOKzUH+1Gfo2LyfvGM/3uKceFHs2d4M+XdIx+a9dL+3rCPZv/wALnxuPDyQ/078Dkz9Sf+HVT5DgGsz3yHtOnuXiWp2ftSRNDSq1zk2yeocGp4B+iia3ttr7yqVmRbZ5pF2vFph5YneFCWAUBWMw4JLPW007LbER51zr0gdFfxcmNdE631Zm5WPKy+Fi6Is4VA0TKHQgCAIAgCAIAgCAIAgCArHpC9TPts81e07nb9mZGtfp/wDDqyjiTZ6dgB5zBsuHVbd8FHmUuFjfZkumZMbaUu6J1VTSCAIAgCAIAgCAwnMGUObhDphAEBglDm6AcmzHEjK4dMroCAIAgCAIAgCAIAgCAICr+kM/qR9tnmr2nL87/TJ1pf8Aj/dET+Rp6ZsdXRa3Y0vj335ouQOKtePC2Tru5ezKMcW2iKuo577bonMFzXFPzH/o5BoWu017Cql+FOHOPNGji6lCz5Z/LL+ywB19ypdOppJ79DZDoQBAEBglAVDGc1ycqaaiZykg0Lt7QVp0YMeDxLnsjIyM+fH4VK3aOcU+MO522xvZopOPBXLYiUM+XPc1OIYtT6yRNkaOq1/gbrqpw7PLLYeNm1eeO55DPM04EdPAeWO/iB/vavX4ZXX805fKcWqWWfLCPM9BhuLy84ztj/8AH/4CvLuwYcuHc9eDnT58WxiVuMQA2LZR4E/Gy7F4Fj58jklnVrlzK5BPLUz8lW1MkJJ0uLC/V2LQnGuqviogmUYSnZZw2yaLG7JdRENumrH7W8X3fNZ71Kub2srRofh9kVvXNm2H5qnpZBBiLLX0bKN3j1pbg13R48d/YVZttMlC9fcu8cgcAQbg6gjiFjNOL2ZsqSlzXQ3Q6EAQBAEAQBAEAQBAEBV/SJ6kfbZ5q9pvrf6ZOs/p/uiawb1eL+mz7oVa71JfUv43ox+hyYvlyCp1e2zv426OUlWVZX0ZDkYFV3Nrn7kEcFr6P1WblGDcx+/4q2r8e31Fsyh8LlY/pS4kbNzhPDpVUr22+s0afHRHg1y9Oe51anbXytgyQps7Uj97y09TmnzUM9Ouj2LNeqUS77EnDjlM/ozR/aF1XePausWWll0v9yO2Kdr+i4HuIKjcJR6ksZxl0ZG5or/o9JJIN4bYd50+anxKvEujFlfNt8OmTIzIWFiKnErhz5ecSd9juCn1C5zs4F0RX0yhQr431ZaFnmmVfPmKOggEcXTlOyOsA7/wWhp1CnZxS6IzNSvcK+GL5s7cq4GykhAteR2r3cSTw7lFmZLusfsS4WKqa17k3ZVC8LICIzDgEVZGWuADvqvG8FWcbLnRLddCplYkbo7dyv5QxeSCU4fVHnt0jceI6vwV7Nx42Q8evp3KWFkSrn4FnXsWXHsJjq4XRvGtuaeIPAhZ+NkSpmpI0MmiN0GmQPo6rnOjkppDd0Ltkddle1SpKcbI90UtNsfC65dmXFZRqhAEAQBAEAQBAEAQBAVf0iepH22eav6b63+mTrP6f7omsFP6vF/TZ90Krf6kvqX8X0o/Q7lETmLLmwMOYDvAK9JtHlxi+qI6qwCml6cLCeu2qmhk2x6Mrzw6Z9YkXNkajdqGub3OPkrMdTvXVlWWkY76I78Ay/HRbfJucdu19o3ta+73qDIyZXbbos42LGjfhZGekc/qR9tvzVjTPW+xW1b0fuTuCAfR4rfwN8lUyPVl9S5i+lH6HcoSwUDP1Q1lbSuk6DDtHwcD8lt6bByos26sw9SkldBy6HRN6RYQ7mxPLf4tBfuuvENHsa6o9y1eCfTkWbBsZiq2bcLr9Y4g9RCzr8eyiW00aNGTC5bwJBQFgg8zZkjoWjaBc93RaOziexXMPDnkS5dCll5kcdc+p88zDjE1SY6v6OYww82UXsddBfdvW7i41dSdLlu32MLIyLLWruHbbufVMNquVhZL/EwO94uvmrYcNjifS1S4q0yn5DG1XVjx0S4gfbJWrqPKitGXp/O+xl8WMbIQBAEAQBAEAQBAEAQFW9InqR9tnmtDTPXRk6z+n+6ObIuOhzBTSmz2jm3+s06hSahjNSc4dCLS8v5fDn17Fxuso2zK6AgCAIAgIDPFPylDKBvAB9xF/hdXdPlw3xKGow4qJG+TKrlaKI8Q3ZPeF5z4cN8junz4qIk4qheKDnyISVtJGRcE2cOsF7VtabJwx7JIxNRjGd8EyRzJk/6VsCJ7Y2sFg3Z079FBiah4O7kt9ybK05W7cL2ILBaF2G4kyDb2myN53D4d6vZNscrFdm3NFPHreLkqG/U+kr50+hPnefqQSV9Mx5IbJzSRwu4BfQaZa4UTcVzRg6jWp3RT6M9c7UUdHh7aeK+y6Qbzc3Gqi06yVuQ7H1SJM+pVUKC7lkqJxR4ftH93EAO/Z0Coxh42Tsu7L0pKrG3/AKIz0aURZSmV2+V5d4DQKxq1idqguyK+l17VOT7st6yzUCAIAgCAIAgCAIAgMFAVb0j+on22ea0NM9b7MytY9D7oxUZbZV00L2nYlbGzZeN/RG9I5cqrJRfNbnmWDG2qMo8nsctNmCooTyVdGXNGgmbr71JPFqv+ap7P2I68u3HfDct17low7FYagXika7x1HeFQspnW9pI06ciuzys7LqIsGUAugCA8ayESRuYdzmke8L1CXDJMjtjxQaKd6OpzG6ekdoY3kgdl9fktTU4cShau5laXLhlKp9i7LJNkomKc/HIWHc1gI+y4/JbNPy4EmvcxLvmzkmXslYptlDYfpONkjVsLde8D8Stt/lYG3uYi/Nzd/YvgWKbZT/SRQudAyoZ0oXX7bf7qtXSrF4jrl0ZlapW+BWR6ois61gq8PgqG8HjaHUSLEKzp9bqyZwfsV82xW48Zo9M615qBTUcW+XZc7u0sD5rzgVKvjul2O5lrtUKo9y80FMIY2RN3MaAPALGtm5zcn3ZsVQUIqK7I6V4JAgCAIAgCAIAgCAIDBQFW9I/qJ9tnmtDTPW+zMrWPQ+6JzBfVov6bPuhU7/Ul9S9jejH6HVLC14LXAEHeCLheIyae6JZQjJc0VuvyXC47cDnQv4Fp0v3cFfr1CaW01uv7M23TK380Plf9HF9HxWl6LmztHX0vjqpeLDt6rhIeDNp78SH56SxaVNI9vduT8PhLnXM6tSsi9rIM64c+Uh0cXtPUWlRy0u5dNmSx1Wh9d0dsebaN375o79FC8C9ftJ46hjvpIlKOsjnbtxODm7rjUKvZXKuXDJbMswtjZHeL3KVjo+g4nHUjRk3Nd3nQ3+B8Fr435+LKt9V0MfIXgZUbF0ZfGm4uOKxdtjbT32KNnaJ9NVQ4gwXa0hr+7d5ErY09q2qVD+xjZ8XVbG9FgZmOCSB8sbwS1jnbN7OuG3tZUnh2wsUZLuXVmVzrbT57EJ6Nae8ctS43dK868QArmrS2lGrskVdKjunZ3bLqFkGuedVA2RhY4Xa4EEdhXYycZKS7HmcVJbM+O5igloTJRE3ie4PZ2C6+tw3HISuXVcj5bKhKhursTno8gE0z6uZw5jQxlz2dvYqerSdcfCgupa06KlPxJvp0PosVQxxs1wPcQV8+65RXNG9GcZPkz2Xk9hAEAQBAEAQBAEAQGCgKv6Rmk0LrcHsPxV/TPW/0ytX9D/CZwF4dSwkfy2/BoVbIW1svqXcR70x+hIKEsBACuA0cwHeF1No8uKfU458Hp5OnDGe0tF/JSxvtXSTIpY9UusUcMuUaN2+FvhceSmWfeuW5C9PofY78JwuKlZycLdlpJNrk6nvUNt07XxTZNTRCmPDFEZnfC/pNI4NHOZz2+G/4XVjT7vCtW/RlfUKPFqe3VGMl4wKmlbc89g2XjjpxTPx3Xby6MYOSrKufVFex6sdidUKOF1oYzeV/A236/BX8auOJV4svM+iKOTY8q3w4+VdWQ2ZMPo2vbBRBz5iQDYlze29+Ku4l1/C53bcP9lXJpqTUKeb9yQwqKbCqyCFz7snAu3gHE2NvGyrXyry6ZTS5xJqVZi2xg+jPpYXz59CYebDwTbdo8yeyZ8mwiqpKmommxB+pNmAk2A7wvqLoX1VRjjo+bqlTZOTvZnE6LCWasmkPU1nO+JXK7c57cUV9Wera8Vc4yZ1ZBweR1V9JY10cLQQNre6/DtUWp31qrw3s5Emn0WOzje+x9PXzp9AZQBAEAQBAEAQBAEAQHLidE2eJ8T9zhZSVWOuakuxFfUrYOD7lPy9ijsPkNFV6Nv8Ao3ndY9vUtPJoWRHxquvdGRiXvGl4FnTsy7seCLjUHishpp7M2lJNbo3Q9BAEAQBAEBhw0Q40n1KZieR9qV0lNM6Hb6bRexvvtZatOppQ4bI8WxlW6Y3Jyre2554plJ8NEYqMkvJvISbOeOq69U58Z3KV3Tt/R5uwJQp2q69/7IPBYa6k0ioBt8ZHAl33rDwV3Inj3PeVvL2KdEMinkq+fuaYiat1dSGtsCZGbAFtBygvuXqvwFj2Kn2/+HLHc74O33PqwXzJ9Kay7j3FdXVHmXRnzfIODQVQqOWYH7Mlgdd1uxfQalkWU8Cg9uRh4GPC3j4l3LlS5XpIjdsLb9vO81kWZt8+TkacMOmHREu1oAsNAqre5aSS6GyHQgCAIAgCAIAgCAIAgCAjsYweKrZsStv1HiO0FTUZE6ZbxZXvxoXx2kVMUlfhh/Qnl4R9U6uAWlx42Svm+WXuZXBlYr+XnEksOzxTyc2a8L+IcNPeoLdNsit4viX9FmrU63ymtmWSnq45Bdj2u7iCqEq5R6o0I2wl0Z7XXgkMhdAQBAEAQGEACHCh5x/6pR7W64t37YW1g/pbDHzf1MPqX0LFNk5MVqRFDJIdzWOPuCkphx2Rj/ZFfLhrbKr6LactppJP5khI8NFp6xNO1R9kUNLjtBv3Lqsg1AgCAIAgCAIAgCAIAgCAIAgFkBiyAjsRwOnqB+ljaT12sfeFPXk2V+Vla3Fqs6orlRkJoN6aeSM9V7j4WV6Opt+pFMoy0vbyS2PE4Xi0H7OdsjRwO/4j5qRX4VnmjsR+Bm1+WW6H5axaPp0zXDrAP+S58Nhy6T2HxGbDrEHOdWzp0bvC/wCBXfw6mXlsO/iFy80GPz+l/wCyk/8Ab/FPwqH/ALF/37nfxSf8GPz7mOjaKS/93+Kfhda62Ifidj6QZj86sQf+zoz4g/iF34HFj5rB8bkvpAx9IxqfcxkXhbzJThwK+7ZzizrO2xacu09RHAG1Tw+S5JI3WJ0G5ZuTKuVm9a2Ro40LIQ2se7IL0hYbI9kdVCLvgdtW42Bv5q5pl0Yt1z5KRV1KptKyPVHvheeqSSMGSQRutzmu6+Nl5u0u+MvlW6O06jU4/NyZCZkzAcSIoqIFwcRtv3CwPX1K5iYixfzrn06Iq5OU8j8uou+DUDaaFkLdzWgX6zxKx77ndY5vua1FSqrUUdyhJggCAIAgCAIAgCAIAgCAIAgCAIAgFlzYGLLoFkAshzYWQbIWQbIzZDpiyAygMFt0Obe5D1eVaOV20+BpPu8lajm3xWykyrLCpk92juocMhpxaKNre4a+9Q2XTs8z3Jq6YV+VHVZRkplAEAQBAEAQBAEAQBAEAQBAEAQBAEBw1+KxwFrZCQXXtYE7rXOnepK6pWLeJFZfCD2Z701UyUbTHBw7D59S8yhKL2keo2Rkt0ewK8nrcyh0IAgCAxdDm4uh0XXNzhqyUOvYg2NjY7j1L0011Ckn0N1w6EAQBAEAQBAEAQBAEAQBAEAQBAEAQBAVh/LS1r5Yg1whaIw1xIBcec+xAPDZV5OEaVGXcz2pTv3S6GsUklNI+R0YEk5a2OFp05oN3ONtN/wSUYWJRT5LuzilOuW+3N9iTpsXA5Rs7eTdGA52u03ZdexBtruPBQSo6OHNMsRv68fJo3jxyBzXuDrbDdpwILTbgedZHj2JpbdTqyINNnTR17JYmytPNcL6kfFRzrlGXCSRtjKPEdHKDrXnY9cS9zUzNAuSLdd0UW+SHGttyOxDEXNlZDGG7Tml13GzQ0dXWddymrpTi5y6EFt+0uFHLV4lPHBI57A14LWtcDdp23ABw46XXuNUJTSiRytmoPdGlXhr4ojNHK8ytbtXJuHWFy0jqO5eo2qU+BrkclU4Q40+Zrg9SG1DuDZ42yt9oaP/ABXbob18uqexymfDPn3J6CpZJfYcHW32N7KpKLj1Lqkn0PZeT0EAQBAEAQBAEAQBAEAQBAEAQBAEAQGjYwL2AF9/aj3fU4kl0RwYpQOkcySMgPjJtfokEWIPUpqrFFOLXJkN1Tk1JdUR9RhsuxLI8CR8myHMGgDGk81pPHUlTRtjvGK5JFeVMtm31ZxMgk5Ooux5YItmMyAGTW926bwNFM5R4o7Nb79uhEoPhe6e39no5kYdTCQWg5I8CG8pzbbQ7treo93tJx82/wDwe+FKUE+mxySNa+JwYXBhq2tGpGlxcDiAp93CS368JF5ovh6bnRi1PydQ1hLGxCOzNu+xe+vj3qOqSdblz337Hu6O1ii+mxrDA3kI+ViM7A9427EOaCdC0by1cm/nfC9hCPyLiW57UeFtke9sbZGwOjLXBxOr7ixaHG4suTtcYptri3/4Owq4pbR3227nvVYVVyxiF0rWtGnKNvtltrWLbW3dq8xupjJySPcqLZR4Wzt/IjHsjbMNsx7iObwtuBUHxEk249yZYyaSkSFNTMjGyxoaOwWUcpSk92yaMIx5RR7LyewgCAIAgCAIAgCAIAgCAIAgCAIAgCAIAgMIAQhxpM4MQw4ylrmvLCARuBaQetp0UsLeFbMgsp42mjfD8PbCzY6XOLiTqS48Vyy1ze57rpUI7HU+JrukAe8XUabXQkaT6mQ22gTfcbGQmx0ygCAIAgCAIAgCAIAgCAIAgCAIAgCAIAgCAIAgCAIAgCAIAgCAIAgCAIAgCAIAgCAIAgCAIAgCAIAgCAIAgCAIAgCAIAgCAIAgCAIAgCAIAgCAIAgCAIAgCAID/9k=;" vertex="1" parent="1">
          <mxGeometry x="737" y="229" width="78.16" height="69" as="geometry" />
        </mxCell>
        <mxCell id="3mXTTDO88YAGcUnz2wc8-55" style="edgeStyle=orthogonalEdgeStyle;rounded=0;orthogonalLoop=1;jettySize=auto;html=1;flowAnimation=1;" edge="1" parent="1" source="3mXTTDO88YAGcUnz2wc8-44" target="3mXTTDO88YAGcUnz2wc8-54">
          <mxGeometry relative="1" as="geometry" />
        </mxCell>
        <mxCell id="3mXTTDO88YAGcUnz2wc8-44" value="DS Service" style="rounded=1;whiteSpace=wrap;html=1;" vertex="1" parent="1">
          <mxGeometry x="307" y="346" width="155" height="63" as="geometry" />
        </mxCell>
        <mxCell id="3mXTTDO88YAGcUnz2wc8-51" value="" style="shape=image;verticalLabelPosition=bottom;labelBackgroundColor=default;verticalAlign=top;aspect=fixed;imageAspect=0;image=data:image/png,iVBORw0KGgoAAAANSUhEUgAAAOEAAADhCAMAAAAJbSJIAAABLFBMVEX///+a2PhjUPtEg/5Dhf5Je/5WZvxGgP5XZPxIff5VZ/xQnv5Oc/1irPxUof1Ndf1LeP5Lmv6V1PhZpf1dqP1gVftdWvxAiv89j/9Ck/9Hl/5Rbv2Hyfk/jP9jrfyR0fl6v/pxuPvh8/1SbP1bXfxstPuIyvl2vPtZYPyCxfpqsvzM2v/O0v7Q4/7Cx/7r9/3V6P6bpP2/zf+uy/9YQvu4uf2Yq/2YxP5fS/t4ePx+kv6wxf6m3Pm91v85af3i3/5TPPvx8f+Aj/654/rT7fxGUvxuXfuUifxnh/11Zfugl/zNyf62r/0jg//r6/+v0f6Dt/6qtf6Lnf11f/xgdf1hh/7c2P50mP6Lkf2Fof6orP2juf6Fd/x+qf5/cfzHwv1qj/6Upv6Msf+Vv/50BKe0AAAWFUlEQVR4nO2dC1cayRLHUUFA3m8BeYiggJIh0QRyFZRVNrtGNJvcmIdrshu//3e40109Mz3P7sZh1Hv8n7PnZMcB+2f3VHdXVdf4fM961rOe9axnPetZ99Lrl68fugkL1avVdqgZevHQzViYJn8012St5j9NHropi9Ff7bWtLYS4Fsr/9dCNWYCO/xvaQsKIq83y8UM3yG19BD4VMTT9+NBNclUvxlvlclmHuNpu//9YnMs/xmUsxBdaWyOIofyny4dumjv6a1yOlgni2trrtZCCuNqefn/oxrmg3UQ5KgsA2y/lKx+bKuJqc+36oRt4T0kfx1GQDLiWBAN6/N+2ghgKTb8+cBPvp8NxNJFIAOLWWFuv/dVeVRHb+adrcS4/lxNYCHD8H3ohM/mtqSKGpm/FLM7x9fXxo1gVvRknkskkIJaju4af7q21VUQBi3N8/vvJgayT4bv3LrdXVHtJxAeI0fEbizte5kMKYii/ymVxrn+cDJeJhgfLD7lNmXyJBgIBgjj+w3oUYotDENvTr+yB907jwzr4/cEm1MNEIBwgiNGovSV53QypiM3pT+cvneT0fKgfTxifWZB6n5NhWYA4/iY53Dr5Lb+qIDKexsuhCVDWgyDeJsLBMEGMBo0WxijZ4miITgM1Z8GHEPfcbDuPXoXDQVlAGL3h+MTLaUh5Fh1a+7fag7IhPTk50P7X24lj8iUQBCHEBKsDQZdvm8Si2hP+PMgp1uVCXhld/vz7RHkW/3ar8Ty6CQdXVlZECWWL08aIDoT55RxGPLlQrlwvk2488W4zvVsI+ldWKERuQt8WfhbtCd8PczmEeEDT/AmIw3f3ajW/pNuwXxaNKEa46kD4dhkR5g7065ihp0/i/swPwoCYMZwUIETzoj3hAQZcNvTWzwMg9GLGuCzNCoUCQQx884G1ESKUEZt2hHtD6ELjEwfWZ3g+f8N59QHxEcLgiswlTLjmSPgaBmneeP0cj9Phj7kbzqndSqFSUBDDv9AlGKdihGv2hC+X8xaDVB2my3M2nFPS7awiCwiDRVgLw6TBT1jGm35bwnMgNI3GPSAcztdyTu0XKusVguif7ZOrQWxRA4KEbYc+lBGXTQ6P9x704V1hXRYgzm7VRTYmXBEh3HIivJjmEaLpebvAhMM/52g4r6RZcZ0gzio97fqKOOGWA+F7RJjPmSa+H8OFT/m9yjpBnN3R11f8goTYGW5LeDlEhPnlC8NlWJseXFh/yhX1KkWMOIvo/7wreOYPixFu2RL6mpgwN9T/FrLfOFnkTr+3XkSIlZHh+gpe3LhH+H0KiLon8SWxpIt8DDEh6kPj9RW8uHGPcALDNL/8Q+vFc2JIDxbqkMKEMqPxOib08xNGGYS+81yeDNQLYHz/u7oHnqfh3AJCcx/6RQlxYMqB0EcI87nlgz/fvfsxHC7nPHFj9NZLln04EyeUEUMOjb0m4xRP/cvLsF1EY3TBy26ZsGRF6MdrVKYbShWOTTkS+l5TiERe+DAQYcmasCBMWHYktEQ8WLiTplcsIUQTIVmHmwjD2IdqCmJwEfr2pjk94vLJ4neGjoQFC0LwopquJ3gIfb6vw5yGKJscD3xQQFgqGq87EIbvQei7fJkjc3/u4JMnvmBnwpklYdiSEI3TVZ42f8+ZVzcLVK+YsiasWBOCu9/sg0vgOPgaD+Fr2Ge8nbPFopIJU9aEFRtCaz9qEof6HyVhKYUQTYQzLPOMb+cpxoTR8WMlTJkJJZDpfjtPsRBh03vCVIn3/qCNp1iMsOkpYUSIcMXGj5qMJkQIZUQP+zDiCiHOSeEnbHpIGEGIAoTWnuIAzknhI8x5S5iKIER+QhtPMSZMPFZCGZGbECJTZh+cCGG+7TmhzMh7v9/GFy5G2H7shBZ+1EAiKULY9pIwLkZo4ykO4PQwfsK2d4SReFyM0NpTHMbpYWV+wqaXhHExQktPMSZMlnm8Hg9BKCPy3u+38RQ/XsI+JoyLEVp4GUUIm5jwk1A759cgnsGEfb7be/aE2Nb88wX0H1q/6fUWZcB5RbibiWcyGDE14Ln/VxCyGSwIIVVTTQqPagc01rSsd5z8Bkl+nhA2uoiPIEbiPdb9o4KfZDOYPVTBgJZwm1A5yxqngbTd9oBQHqDZLIWY+uB4+yQCGSkIMWBKYsKEQogLJxxlQRgwA+Ym4mAoBrMCydcoFIK3ph8HtZxiC8QtM+KiCfvdbCwWMyGWPtjkA/dLBSVfo+AP/jLfEFRzijkRWSnT99QA8RHETDwW13oxZQwGY32YqfkahVnRyu4SQktTszUe07YGzRXt6W+L5BvFYtVqlSDG5W67kidFBbGUNT1ju+vrSr5GpTA7tPxOyClOfntjoX+JXlJapLu734p1q1WCmInhDpl0IxkFMVLa190v3VYgEI4QZ3GbRMkVG0+x95IGsa4sQMxmr5TrI60XI6UMNQ6vIEiMEQumhAZVKzaeYs816hJhwAFlV6QPsH7Dm6mSMv9fxiGCihFnDtPJimDG7YLU3+y2WgpirGuwGL04hRjB8//dOsRtkColp5XdoyCUBt3NzRZBrMYsBtxdREWMFO/k3TEEpnCQuLJvvp+SXzCnmKXJ+4uv796dX4ic3xy1NmVAghizXob24hEFETlRcUgDE1YyjFRsv2DGrbPevz3AB2yGw4ODd5xRVGlnEwsjVjcbdvcNUipiBPz9uAttLYwiNwmvQ8OcFukfnvBVcOhsaohdpzV2PxMxIq47L1ix/II5xQ46P8jRyQwyoyHD31LS5s4OQexeMe7dT0VoxGKEuenwKX5UNwjfTg35Gjn6GIqtGogQIbbqtgNUuzmb0hCLXBtHWz+qsN7mmsaUFC7Exs4OIPL0hzzNgxc1krJYw1nLzo8qqq8QmCKpUxQia5nX2KljQt5fJMWAkOMJBBXcIXyP41IovDhc/nT+9cfBUEFkJbvLhHURQt8ggt2od+w7QQXBnGIbtZug6Q/SZxfDZWJuGLlFiLAuSBgXIxTLKbbW62kbMw61w6iTHwTxxPl5IYQ73L9rAHOGCKFQTrG1VrGfsTnV2RWCOHzp+FFMWBcljIsRiuQUW+pyinfHeX3q/gSexWXTkSKdgLBuJhy1rD8wiM9B6A/ejF5x6IWNPjZh/28YjxfkWJhjvnujbknYb1Wr1gsy8BSLEvqDYdpfY/TWjDWtKd5TEFhQ8m+jj4p04tBxZdOod8yE8mZDXoZXbQgRojAhdT5TPQ4u5kaVB6kpsf1PIHSc9WXCjpFwJPOhnYblomWAvVP8hBV/wS1E84Hwr0DoOF8gQoSoXTnbaeHdorzTsFrHyYQyYoRvyYYItfOZekRhT3F7atoTnkNWOJuwQxFetWCngTrRapYcgCtciNAlRHO5m08c0wUQdhTCngy3oyBWrTYbA/D2ixFqiNQwDfMDAmLTRJLPoWX40PHgiY6wUcd7KYzY6u5YbjbmJCSQK/p+DOj7MWr2GQMmKc0QMnz38RCvw4eOHo1GRyO82iEbDbybstlsDDJZIcJ1m5xiIe1BaQbjMP0EScXOa2+NsEdWN3gv1bLdDQ9wXMpjQt+URG10U/4LOMSQcw7lEMJOo1Mncz8idNgNI0IZkZ/QJqdYTF9DUFurTF3bI6c0nCd8lRCmRUB03A0PIC4lQli5P+ExKXbTDqnP3Pcp7IhzTeePNjobHUVAuOnsrpmHsHJvQuhEKB/283Iyuf6eh1RNZhciQh3iTofhrtnPxsQJK/cm9LWVSaOdn8rKkx1xPsc6KowIaUSmu2YTh968J7zOr61Sa1RtUc76YGNjQ0Oss/yJvp4SQM0wbyUq4kP99yf0vZiumhHzeaZDrLGxrSDWWQNU3nNk1QBqputUB0tTEcKLLvhL95ohI+J0je3xkwkVROYA7VXVACpCzHA5IItw4t0Nn/flp2aIRmxOeQ64STIhQuykmXeiECqNmI3zbKEgSOwKoTxSt/LtEEHMTz9xhWYwoYzIdHj3ql0tRkwQM1l2ThgQFtyKrl2/LDensjXNv/3OeVZf2sbaYN1W77aUGHFMy9fIxJkGB+LgrhEiXR4fC1Qi4CPs4V0/IMYG0n5WTUmJVxkGB+LgrhKKSdquMQmlekuNoFaryL706awb5xBiCSM+LGGNQYhjxASxqsz0d1kN0TGGgQ+EFx+ecNv+jl5L3fR3qRDqSEXMxrsOvwASNioPS1hzJPTVN4n0zjdJzYCLOz2KJF+DL3i3CEm1GkZ0uKUBrpvWpnFq2M9AepjjgwiExWJJ+UeRShWr0F4c/8pnxcUR5lsvcQkIa06EviuEaLXr76OJI+scSkwVSxqXBkU7is1O1MQf94LSiYfQh/wa1nP7XSaWcf57p5TEoiKV5Vco2PoYATJqVZ54PnER9u3dNiNWjnSqpEes8CGOX82FYyEuQp/Dmo71xKRKoojgYRy7VUBJqqUxoktfZ5aSPCWMGHapATJh2hNCBU5Fw6fe6aqvihMcEsMDiS/uNAARphdPWLy72rfUIfpPry8EsWyddCwqKZ3GiK58mZUiOANuXWTGJ+n9gbErBU6AML1QQlSaQYTwMkoMagL/3+G3z4lE8p83c2aAL5wQkvyECH2vEoCY+Mf36jN6jUYCRWvG43/nKborpZcWSbibAokR+m6TBDEZTZDgWwK/SGOOhYBMiBF57290BL58Ui0peYyCK+/PAVMYHN6lYT52xBIiRIinfLdf8ab4Ie2n1FRNUcJJUhck1hDLwisBTIgQa2fsm3siSX44cVpN1RTdPe1G7RC3BHsRCDFimuFva3QguMjl7ZY+pOJU2nRJeH94E9AQcWBYRQwIfhMQgrk5clpkXikRVPtccOrmOHWCAZVmECacKO+ZSEbDbw5f3XxRX90zFnx53RmNWLN9HHt1LYJaZ31nP6ucQFUQxQlvA7CQSyiHNqU3YwVRcJw2ltSBihgtH8fGBhVB3aw77yekO90JVIwoTDhJkFcUfNOuHZfJpPGv4Jcp3UgQLR7Ho7oWQd3ZYTR2lMmQw4syYmo/Mx/hTQCvxwPf6IvHY9KJgl8m6zRNIdaO9D/s6yKoDDuDTmiq5zMj1YkvA2fCRAnhmEbYYFVuygnuikUGSUdpCpF+HKVaRxMzADfIqD5GGQ09QRk4vCg6H8LrQpLG7QVYm/JcPo6zpTSFqD6OR1SMmBkh7sViWtSGJKSQw9KChLthvG9MGp/4N4A4p6PqNJ3WELfT6MvPtiG8CICMxWtjM6YFpjLKATgwqaKEh2G8NS4Yr++VYVoU+zZV0mk6rfXi9qlUI2EbjMgKwF3FqmrsLZtVfajkeOadtukd6HV3dzcw8d/g8v1h0za/B+97m8PUEDWWKETChxE7HcbCtdetauFFOo8hS2aNSEo78GbwLhYKM+Mp9xso3//NcFkmTN6PEM0cFKICyYwQ0+HFalZ3QjOb0Q4SA6YCSnmK12eGQ4yHQPiP8RftRmGNeg9C/DgaEDe2WQOUCi8aT2hmMzyIFUMNlV14c49pCXoTRcvweS2NIumopkPcYAzQPmQUA2JsYDB/2QwLEWdrGGqKXYbhIIrRLww7jajwosaoRrqmIm47Lsflv0enpeYUd6stk/NfX33CChGHwY1V04gb1a+/ehiFajcuOMTPVETGAB1ROcVdqwMMxj6MpMwmp2gm/AX1+/V1KCZR2C7ex9BoOkpzOMP7KKlYQewaBygWKZKiFGugyoqQ+jeAaCS8JK+YCtzQ12C7mDCZ2LnUYDvDpatNKqfYJjqFc4sycdu0lBG8ocBUcet2hdTW+qK4LQ4TAVdDGo00yxne29lRc4rtk4rxCi5jH6EaQWkGE+EkSEIawcCXw93dV7/Ciusm4VLkrcFwhitJxUDYsTVHJJuBQVg0V007VBDltQ0CU0IbSVEvhi2Bs6v4ql6nEB1So0gygz0hxIgt6sLBONW/0Q4V1HYr7OZI2K/X1ZxihmuqyiYsWRP6vgXNiIGoazkPDXtneGNbl1TsPF9WYS/lSFiyJvT90t7ZRxADYffePNOwdYYfUTtidlIxbDUYhKWideW7kT9II4ZdmidADbLpN17vUznFHZZPwweEsXkJZXvjDyqA4eQ3V7NyGsR1Y7y+oaVN19k5m4QwNjehvAi/+SJb06D/dt/l1z3aEfbVtGl21jtSl0mIl3Dc9RndU4O4GE0/qJFNP2e4qgubfnvCEl6lPiZClFW8wfRpqMJlmRiEqcdF6DuSu5AzGOcDwqoD4S7U74/P1ch7iRAuWfxoIy2QWAeuGztC6SpLdlN3nmcvOhAKJQ46EU4+oNL2xEe1bl3Vb3FyIBQS8U5ZrVz3SUFtxQ23blfVbjFyixCSw2MWhNWIGl5Utv3rXqYSu0nYtSLM0hFUFdHDkeoqYddMGNN5pzRE7wzOggkHWuFQTKYVSHMxAdpZiyXsR4iPMRIZ9BpSf5QtEsSidTmOBcgtwk14EA2EVfC1ZbRK0z2lF9c562vfW+4RtsyE/Tg4FFO07YwTxNh9fyWnXCRsmQjhUL/xQJFSyc+jJ9FNwpaRMANeYcNZG7JEZddidEeChLZ/dwhp6AkbmZileyoOvchdC+5+EiM8sq3CAIEpfdHXXhbcU8Z79z3dZ4gQ9uUdsd15BlJVU0d4BYSmviJv0TK9CW0xUgjZO8FGDbs1bIw8xDTMhDKi6RhxH96i5THhUpqRlnmknJW2/jEpdmMmjJkJyVu0vCZcSjvFSM+0ZAbr3obQm56QnF00rV5G8BYtrzwaKqHMaDdUpfS2ms2wYe38JsFFg6WBqujGD3yACKrXUz5GXLI0ladUwoad78aKUILSDFmDP1kiO2Lumhv3FeS62XfjWY1K2Ng4svgGpDqEF/V2qEsSi/SdeAepmuK5qPPrjEI0WhxpqUYlbNiH++tQlUlPOIKgd1ZXm3GUIttFNxGYOqW7kbY4p7rkKYcpBUKoBkKJZMDRU+IVqYqecq6A7rqUDGL9UD3TJfnZDVAsEiQ2zJZXCqKSANfvkg1xnPsdWq7p1GRxyANqn1NMi0T6jesBtUxKNvNhMLjDieGQm+GxTxHJYHEkFRkTstY8JL/fSNjPqjVE0C5DzT+JeLTsNkhvcah/Op9fwCLlw0xrOmxstDIpSmZ4djEEbNFDlTVL6gXlUS2SbUZZM2Lcq8neQjqLQ8Rxjsgn1e0IfT1TL/JXRV2IjN14yuNsOFIOaVjtPHDZKapkEV9ZpgVKZ3GWHKcIor5ays8m46YxiCkFROLdBzCiJuksDnOQSjXtIMqObYf3R4O7u8FVzzNHMEO2axyLW6mclB1WlaZHpIbOmNp3Y2ODyrrZYZRseGTSr3FsulF3EMXOwfFoxdpVYc8UdRCFxyY9NjlbnAZ9EKW+/VhMiKAcLM6R7iDKUxugmuwszpnuIMpTHKCarCyOlNb8GtsbtSc6QFWZLc5pjXLdbDzdAaqJtjjp9Bl9nMh54/+EpBuqmuvGwTP15KS3OAoif9rbU5CpGzk2/k9MtMVBhP8/A1STZnG4i6Q8OZFuZGyonrSQH4fLM/WEdXbK45l61rOe9axnPetZz7q3/geEfC2LaGbgVQAAAABJRU5ErkJggg==;" vertex="1" parent="1">
          <mxGeometry x="405" y="387" width="66" height="66" as="geometry" />
        </mxCell>
        <mxCell id="3mXTTDO88YAGcUnz2wc8-52" value="LLM" style="text;html=1;align=center;verticalAlign=middle;resizable=0;points=[];autosize=1;strokeColor=none;fillColor=none;" vertex="1" parent="1">
          <mxGeometry x="417.5" y="453" width="41" height="26" as="geometry" />
        </mxCell>
        <mxCell id="3mXTTDO88YAGcUnz2wc8-54" value="" style="shape=image;verticalLabelPosition=bottom;labelBackgroundColor=default;verticalAlign=top;aspect=fixed;imageAspect=0;image=data:image/png,iVBORw0KGgoAAAANSUhEUgAAAOEAAADhCAMAAAAJbSJIAAAA4VBMVEX///+04eQAdKMAcqL///0AcKEAdKEAbqCz4uP//v8AbJ+z4uQAdaSm2t+s3uIAcqQAbqMAap8Adaa14eYAZ5wAbJy75uYAcZ7v+fiv4eP1+vsAaZqx4Oa75uiy4+IAdqF2tsjS7e3j8PRfmrpgqMLI3+ZvsMaPytihxNe0zt7h8vKHw9JElrYshqsgfqlcpMBspMCUvtM7ibTR5elUmLyIts6z0t6kydhUl7Idf6e/2uZ7qsQ6hrHi9fOb0tra7fGlvdA0jq97uMaGvM/H5+d2qcdUoLhPkbqDs8bf6PFvpMaRbHTiAAAYSklEQVR4nO1dCXeiSNcGimJXBKRUIpIYl8QFTWL2aTNO7O7p+f8/6CvMZhUFCJrF98tzzszpk4iph7p1l7q3bnHcN77xDRKiKOL/VE7lxM8eyrsCs/zfpdjudu/uut2Hzx7HriFG0tm+vg+rVc3SMKrV8L+TP3gq8c/Vzx7dTiC2z85dTQbCKwBw4fisvVqZ/wN4+E/WgGBIbwQNzFECUDu+2PsFibVK+78qXJs9AvBg1say+tmj3AJ49GdyLYFeBBtULvdaUMX6TBPsFIZYXrVx+7OHWRxiFyTJ5xrAwd2ealSVu9KAlElQkgTt7/0UVPHKEqTsOTQlW7JOPnuw+YHVx92BkS2iz6he753ZEMWBvDlBAVQu9o9hCOzsRfhGUfI+e8j5oHI/ZQYPCasVw7ADWzLp31RuuP0yjN0Kg6AJXUuzLLdiSPT0BqZ1tV8Mb+NKFGju8dlVt3t1NnU1eg4xbsV9sorYUJCwBe38+vXX4tVvDdCKyD3ZnzlUxXNqCo2afC2+hUr4X1cGPY3m7acOOhfEPwfU6KHxQCoSHBKPIfUWrO6njTg37gk9AwQwjtkCzJeiaIPjvVGnYkgMPTBhO65FRNEjBdWUqnujay5IVWlY1+yh32mknFrdfZnDE9Jhq43ZHxO5Y0h8UL782HEWx32FMOjYljM/pnJdjQiP4fG++N9jc50hAB573PinLmEVwV97IaV4yZkCMe7fyQrkmLSbwNsHVaOqXNUI1lfXNHlmLmsERXkvAgzsr1TB+vLC+iOR4YlMLMRqgjx/LeAxVgkNCTHDet2r4/8wIgoq9+LBnZEx1sHeMBTWNQ28QTrP8w0MXlcUxV8eDQb1pw39yxphOfdDSlWRMwnRA38pOmaGSeq87vAR2Sb+H+apcjNS05j7MYcqthYERbcUzWEcjbLvCntnLVRVHBxNZGJqaj2fyVBBQ42U5+nXt/hi/cjh9cMKuZMfsudQ8cdAorTuVwaePfWHv1picyryk3uIVyh6jqKjQ0KTSrb7pZNtIuc9KGV+NVvIJvNNktZHTXoCm2hORvm2VPlsEqnwjpyyo/BOpCzRhFiHhgGkOaJlFJWoLX+jNuW+aICI5dM7aqyPfk4FflhN9pHyZDJWE4i1zDyg93Lk/rKeQREbUfXJWxCfSlc+RKrxH3lQCCHUHXoPxhbkThO9rkYF8b1abFM4dBqtZT1rKYpe9/T0779PT7te/SPoRX9y4Dd0UpEofWo3EQdJctApIX8FVOqFUKB3VLVHFC3PozSG3cuZoWmujOFaB+bN5ftvXomit2zEjYG/MGNbwgBa4aR3eNib3FqQ/qVhC7dKtIb1hjPA00gm97Gaxj+4uDct0tIC2YL3F1zs87tDZN/5RswS4HHSBuNJDgWIX36F+Svbmr98TWPp0SoHL77ub5eVChGge373bgsSL/VlWXdaTowhjzqsxIWEnTRbYGX2JfOXv2IYeedNfkD/qfaiWrNtVkkA1tTaefc98uRRbdqA7axgtJyxaaTWKFAzERKvqXyE5fLlPeKVcH+QmkwG1an3DtMocqSJoCg2AzNHitSkDCaW1BeKIte+dRmZHOJxOfizc39IFJeN+AJ8geK0+rXN59DqI4d63Hm1BVcyMDJelmQDece1ACJXZ6w+AqgPwQaCGo1dHsZcnpWkrlTkY8x9YJOsPu6UoFrXE9fgyzygfsyqs4Bf/yODIO80jiIP5kzbTBQM07rcpb4ZlHk+g6ITeWYsjUqNDIK407p6Q05jqXLXVYmpQuMvKjB2VrSiRjomS0afBqmPtCjETVlFtrYoswNkjPLyzgqSn6URWHc70qjiUdnJktGnaeTR0HDTBgXBoZ+sr1rNmrFB3dgLDBt6u4lOHsoMN4YJvYmanbiP9gwA3UnJT35XLez8bc4Py4MBj3ewFNVNRfQFqNyxK6a0XkErCQGQgGsel5gr8PXJIa1GA9sQJKgdWNUDDdYCQaJlWDvdmqCoDhrOhjP4OlL+cWG7lbfRmECW7fNHHiE99atiFR2mgd33+6vuw0P39D60IKMYYPt1+KORpURp4BlHqDycrA3EmAxLCDmOkkbQP6zEhLQ66q7C39XL7s6sWHmudZ1FIB2qWOdziegbUOMtIpTsZP35AoVHBunKgAAGd+R47kKZ3CqQbGO7rRCRc1J80fQRl9cYCqXszzeHskkss8BaeKQxwD75uEIuRcm628ZBFbllpqHfFUMejSBZHAZpgpG0egvCqZAkOC1MD4dL6hG9KfiODBXClTGwkLKyGqIXBETKWTDrhaVU5X40Wx/GEPUJUwGM6h3LX8HBv2UQDA+6RaVUVD2FFc6/F8Me4ShIlQV7fYncDBKzLZ8VJIixLEyvCMMFyVC7SxpWVyMTQbPCmiaKJz6QIWXujcTsqRqSCqlwBaCnFNSixRg2SH8FjGO7U6+g8qxhIXo4YloWtYTFGJaIUQtwoieWolySOazk2U5nOGg5xRXp9gzlQ32Z5KycuDtgKIrYzSpuDGmGRm6GoIcagwQVcrKLORTTdg6zoWM3s2ysz6GetapL1Dqc+YqfwPAnoXVBWIihV9RZe2aIRbxhEp43yvhCPSCrT8eIbyUom4VMMixCkNvCXcPw/Wb/52htEOaiN8wgicbkHAolHGkxJ7FNprHAeQF+IlfMFEai6CM07401DRKiBKFsjTtzhJ5LbBgMR0TsJ1UO/RYfT71h7XPikjVYRVxv9agQQRwBKajcu4WyKTG22yo1eNvDM8mmiHpkqgkYeMaVmDbFZiwk0+VakRjYKyijOipNhAoenMQ6AyWZgq2ByTwhGJ4TWVZJgB3EN3/QFFXuzCX3U6t/8ntt4kMhRar75Y4sZ+wGAmD9KsUWJJZuxb+lPur2/QapTr1oK4NON4cFYny1UEjR8oeCnL1dbQtmrcfT1ShNH81D+qMmpkgcGlZF8YHejEor9kzEjyJ6xi8vrE0O6BmGBLRxiVqNaD6q0LNvC2CIECFcXFc2qZdYvci77Y0/7ifpu2REaRm4ef4QulFy5kVWHbx8XZZ0A3dUEt/AtWOZU8lc5J5AkaszShGygHoZx9QpmPLktRYFKZ1awja5KcHpxbPLIl78BLF5lrT81RliZO1zbgHzaBL72+mQBHn0JCk+OjTw7Cc9bkArmN1fnl0eh5YcT0/CWW6C2OfOr2b0MbNsIh1wXNZ55A/DzGdBVNLBOOqPV732UCDAH+Q2FYguidoIUmWso/445+QTDA3trEhm5ig3wVEOHfMGQ4KLkSbEjghvjiDarSowh/nX4GaJdwZgbO6lwDakzXLA2OsxCrXYqOclOCywBpPHXZENYaNT75IEYAF/jcsfN5VSxAzgkEKGie1q4oByp++mJcnXv/ygyOE+lRP9zKILcgoXzEIhLGhQux1Neo+Pvc4orLhYLaQPOOpDJI9KyJ/bQMgSVCAZwL4oMoH4nbRyOTRoqDEJ1irj3lzxcbCI4TdLh+P4miMhmfJi7kcp1NItzMrmR7VtBdvciPWmkoNhq0FX/j7BXfRRlNCOtJbDK4ru+/ORlTps7RY/oigKj2XoJkt3geq0YBUG9t3ziCi7JFGqBH0U08jY9oUQGAwtYuApccPHtRoN/NEoCmP1grFNCQD3r8KVtGLOXEWZJaLWryZiZY6RM6kw9aRRMQ6V9ZhR0ZWeVBFYKsyQTFc4EwtnRUU1Mxu9Dv+QYSm0jq+zHVsF9ejeC08EOw2fXy+HcHC40Tw0tPjSBdC6PatHgWJRhl4el61JZ96fCKZUlOBXIsWUKigxX6uP+hNDkyGwgYSnHgAAtWp4X0iDrjGs52DYQn3NpAtc5EmqFKCOHIuyXFalIobT8pX5P5NxGAC8KoNwdH/d9rgty0rFdp5cBZpAui0LGKfXbrT8MaSXIhglzbqD1y7y9bLTbrdXUaIoblvIli9xr9DyZgjaPGtvuxTXH3aW4PhbkSKxzMGwFT8qY06YWpQYbY/WTgD209+Kru+w4Dmlri4G5x/aGNpgnpmB4cv0JAaVhAOLrwwbOzxNm1pZRwHHhRuvqDco/sQk3U67tsh4rLHD80B5gkM/VmjHrN+moKM5eZI08mmyGCZnvPPCy+OU8jFbCDfaaPVrZHxkGpqSuvfl7JJhnsgpFhlGp7g3eA4taHuhzVMfaJWPdsgwB8U5naPYZBli+BNaujHDtL+r8DtkmCP1q8+pA84C7KTUcL8B9eioX+6nM9R3xzCP06bPtYBmmGXuV/APaR0s91OtlN78LIa0OcRzuMmDfi/OMFW8lU9iyMcZ/tqIIeoAOkPWT5XuXc5hLl06pwMLME7IYK+jwaNZjbAWgWRlaJrPYliKxetBOZshjolCssMg9tdLH8cwTxmNH9IepjbP1qUKX9KoRKpdQXxa1LZThnnqEamK0E1VDaK3PkxhnG5HlR36NFwuhlPacoMw+ynFodtI2jB9X2Cnfmkuhko8Y+E+Zp+r6NNHvww566nyDmMLP4/nXY5lJOyglbqidF73x7HmCjCtcjFqPtGsr1qp7CQOzrNd6sQXoiR3Yl1NCIZNdFihQ5JamLYMdR/5KHvgm0I9ymMuYtulgSG4qe6J7s/l2E427CU+EhXJDXudm+l0enmym7tOcqW4laYb26U3ghKfcBxTiU7uhfGd+grLGirR5M0PR4ImRwk6/D9Nq1rHJ+0tt9vEdq4kPiO/LZlG4imuJiozOioLQqeJ4ofafOWfcQ3WiDcYwErt/LT4ln7E0MtVDhV3vqN0ipFQm+egUsi6PAFAqYeoR1CjZ1SALQAyQJMMs+baZ1tsTK3Ku3MgrmuiNy33oigqJqtYySTk14BsH7Z4XVlJq+I4inPoJqcbgeZei6vuJ4WQL/eE4lum0YuWx32nRR4X9Z35uJKYoDeESjh87diD5mNNSMnm24K2+CMWPXZ4lIuh4sd2FJ9SfJXF0Pdfw1qsEocLDSTXhdmGAazz+coa6+gQmkJGRQbUrorxw8o0X8mX0kyoxACuPDqcl3Rd50vzwxnQsssVgDWaI4VH7Co++sPaPVfEBxCxqslXtof+SaiZtWs16IIQQ6hsWI1h1yo3JXRDb/+wYViFWoXhd/LUxzEHxVFCpwjbFmwJABzPB1l1GK+PCLKwcYmcoRVsQ3yU81Sl3rzNVXdJIqZONrmL5wXaz0KCOsgppnqrBDarYorDlosXtQnRUeiTIi2xvHwdFKJT5v2CdV/WEJuF4qWJ2B2oPhSxGcvc9aWoD80Nbglahy0ZNXmIdDQMK+lCjg1H9NV4LccaKmCOhVoq5K8vjYq8cy5FLNZw1YcHKY9GarVUADUN20ugWTWGvtIKHAIWc+23rbDqvZNvRdnA7T87iL7Sg4mnNAC0bq7/tOte++F6VmV8zCwS/i8LHFtTSuPNtYYpSW74VmKio+YvWJHMWCBmGDVzUnobWP1ShpSvY7iXua2iyA3yE4x2QTtZLcheYQvWRCGiXlQaVSAt6NhZHZfQ8vWik6jP2e8KuRNpBzB3MIXDy9zdTJ6i2364oWKEwdCn/gSW8wWtkaXKyOfLg7dWdVGxyVQjGALbPS1g948KHa9UeL8nVYJU0yjZgSDDDitL2UL0LiOYId1R6MFNqWimyHkEzstb6v0CVOqYcipFsyL/KsW7DEcvqEz1ngFhi3ca9N6MGN3aQ7TMhkWaghdqpuDg2JVH5Z6QKKsAyKBT8nVmja5Ot1Cy5r7CO3Q4r4p/quTntLsCEUauJBsFHw1HtoYjvLXiSUmyAYSWNBom78eiDnl+eZUyV1gJiykZSRfpmZ23ypQeK+L7nbG9plkxv2A8mTstRU9069GCbB4k9/EPGywJ7JLBGBjlZ8iJ7a1aYug6Qqg1f3vThtDHP3JajpLc9w2Rxw/NIPohu+kAuSMJi53l9rc6y73CescBO7vjQJnceoUjX3HKHtMS/CKvlyrWcaDe2uo8Pl+kawQ5Mx3E60v2qSbqlgy7WE+FLft+FGBokwyjrX66T9Qz/t7FHKoerxdu81WMITmHcg+Vk/IUZF+MlE42qQzz5Wh2wLBMRphwhPwkd+wn6RsYRQhG8u/kOx60LUOdrAoAt61BUsxAune1YroUo14u6rwVYkgd0zSgw9zVxj9rkzFMob4YT9+VpyJ6e4b+L4KhXbtkhkWqyJ2RFh/eF2bobUMwP8N/KL9UrrO7mYnU0aJCfTGe3laBHZstGPIlqoIBTlnWUBTpe3kP2kV77m3ePng3DPkxFZMwGyGLV1RoAcaFe1/iB7ex+0pOr02Plyyy8ktdSBXTyWfblGhgu88X6tqmKIrTWNugDzbo7onFlN7oqZ6t3YKgRreVnFTJGnHJPGAv1w0hqvXGZl2gKTR9Z/1eGUOa+6lVKPxqL2tUo2NnbfbWPh9TvZjRZ99A1Ct5C4oqF3URzk8QoXmHXFVgPOmj1ApinVfmFfqcmAGrs+vn47Dt01kV0PtxgXWx9W0eRw0+zxEFRdFRuRdYkEoiAagFvRKOF5TkvstowkiAAK0qLKbH52aVtTsiF+/P+oLoSoQ8WWHdL00AiO3uRjBlOJr7TxcosdFg59ZMQYZJvX3aW5eCYccC5RFUv2fCKO/COu8rGRBM9OR6fsUfss6YCsHqCnrWb6q7uaBd9HVnM0F10PxWTs33Ahj013rv0EhMKDMhadvL6Aoq528mqE6rJzPlcx1mFL0nf1ts5zsFtfMdndoTVSyom0whunGjqq+MF49Dv8SmBuW6F27cCQbe7vIKzCWfOYu6M9rw/cvjhhNzJJToer06J9ZvN6Now3ArW09BFI+yu+tvvIakytiPHzXVdceLymS9841elHvu7aimdgU1u90nukku6ooBMs6ANfyoVi26SW5azf6G6D6kXV8+/0NPudig5R/m6sMjd3zS9OuNtQ38awAlVufFJ0iCJIMd3xQUQVXrdNJvDQqjDjMNQB6iddPfbAzWokGxPbXok0NvMM3qTcHGJukMsfwkB1OtBBWYlIaSzGC9tUTDIbQGlr7u+UGCxoHu+G7X8vn6h7kfbH2joF5sCoER3SsXhKHhylEmiu4cBCcvpYsOX14y/lp3pmlAsg1DMGxg2wb+ly2YrjZ7xxsCseryoiCIltUWX5ZjrY8k174ZlhsNRS/1fxm1WNEMgKVnKW3og/iek4qVW/3kt3EgywKQosxyza0dGL9P8GS/49Weq9vl4pKqo06NZghgj0f+U9pU8fnHeN/AqK9ghPKS2exCXNkC7+LkfhZKABjh7/uTrrf6xXtf1ekty1R3FqUcc/y1RZmwB35j5BpUbySz1ML8+PdQGlsiuqaTmEP0SNto+VfsNFqsq4kEe3glHn3Bq7lV7ukmy7UJonfJIoI6qZMU3u9QRQzSrb9kJwi/AsSjSAc+qxxKSA1wyzwEQ+WxsV+yffj6jhDVAXppxkudYZPgnO0ZlKgQXjv9ynerR9e9DlD5aYVRqZIZ+9BGy5+QCnWLS3A+DN6R0mzgwJzYYqjM2eFfE801oicR+P1lV+Eroolc+rekMQwTHHTFQdS5rmI9/z8U6mqzkpzCxO4Y2IrekBue5i5j2PeDyJHhXHSqV1/1XHthpjhNbF2c5YN3RhoM7QsaQwZUj2aIbX0z2sNvNpuNRhlbTrQ8GqzIXJN9JKt7wVCNzeF9fXD0gsGgXo9oqJGfqXLUHO4HQwzy9leYdJQFG797wiIC8+trmieEpA1IauWPf0x+ch906RNm5D3A1YukOWxXiX6WYPb17eET/iV32cDPpA+SFzUJ8L+v7LWt447cZjNr7JBP9Kjtxq/tl66jTjYRsJOKy6fUZg6OLfaEIUdv52v/Pns7axC5M3pHtXC51odDPKGbeUTHkUiNKnLXlhn/0J5A9GK7t9aUlr9LzaAub6h8wR2aBGBLHktCy8Hpc0PV1d7Y3W2s4ccOUvAfBlGta/G0oRteXkRemej9OfnLNelutYJWrCv+p0DkxEtWctu1zL9ms3PjoCKBWEtlmVm29nXhJVziAUDC0WUT1PeLIUdfNJUF7W6726Y/HNja5aKo3a9SE/uF441zwJIJR3smoit4s02TpEYtysF/9njzQ+Q2bfgQVVHsjUe6BjzmmRUklGe9wQy02b5sXtDAFP+tmlm3G5nWdNve+J8IkeuCjMUog6v3SsJ/EOr3FjQlmzmTtiFr0/3YBE6ByD0cu7IR80Ij1LSbP4X6rXwpREryz/2BRrcVAlDT/ruIBHS/ZfQF4t3P8CC6XwREVxhCWauG09PPHtROEQVN7dOT6WJ8Gy4W07Ortrf13RtfCzFhXO3pf+Mb3/jGN77xjW984xv/P/B/tZ0Ur2eXVBcAAAAASUVORK5CYII=;" vertex="1" parent="1">
          <mxGeometry x="748" y="343.5" width="68" height="68" as="geometry" />
        </mxCell>
        <mxCell id="3mXTTDO88YAGcUnz2wc8-60" style="edgeStyle=orthogonalEdgeStyle;rounded=0;orthogonalLoop=1;jettySize=auto;html=1;entryX=0;entryY=0.5;entryDx=0;entryDy=0;flowAnimation=1;exitX=0.5;exitY=1;exitDx=0;exitDy=0;" edge="1" parent="1" source="3mXTTDO88YAGcUnz2wc8-56" target="3mXTTDO88YAGcUnz2wc8-59">
          <mxGeometry relative="1" as="geometry" />
        </mxCell>
        <mxCell id="3mXTTDO88YAGcUnz2wc8-56" value="Expense Service" style="rounded=1;whiteSpace=wrap;html=1;" vertex="1" parent="1">
          <mxGeometry x="307" y="507" width="155" height="63" as="geometry" />
        </mxCell>
        <mxCell id="3mXTTDO88YAGcUnz2wc8-58" style="edgeStyle=orthogonalEdgeStyle;rounded=0;orthogonalLoop=1;jettySize=auto;html=1;entryX=0.994;entryY=0.597;entryDx=0;entryDy=0;entryPerimeter=0;flowAnimation=1;" edge="1" parent="1" source="3mXTTDO88YAGcUnz2wc8-54" target="3mXTTDO88YAGcUnz2wc8-56">
          <mxGeometry relative="1" as="geometry">
            <Array as="points">
              <mxPoint x="779" y="545" />
            </Array>
          </mxGeometry>
        </mxCell>
        <mxCell id="3mXTTDO88YAGcUnz2wc8-59" value="" style="shape=image;verticalLabelPosition=bottom;labelBackgroundColor=default;verticalAlign=top;aspect=fixed;imageAspect=0;image=data:image/jpeg,/9j/4AAQSkZJRgABAQAAAQABAAD/2wCEAAkGBxIPEBUQEBMWFhUVFRUXFhUYFxcVFRgXFRIXGBYVFhcYHSggGBolHRUVITEiJSkrLi4uFx8zODMtNygtLisBCgoKDg0OGxAQGy0lICYuLTItKy0tLS0tLS0tLS0tLS0tLS0tLS0tLS0tLS0tLS0tLS0tLS0tLS0tLS0tLS0tLf/AABEIANMA7wMBEQACEQEDEQH/xAAbAAEAAgMBAQAAAAAAAAAAAAAABQYBAgQDB//EAEQQAAEDAgMDCAYFDAEFAAAAAAEAAgMEEQUGIRIxQRMiMlFhcYGxBzRykaHBFEKSstEVFiMkM0NSU3OC0vDhNVRiovH/xAAaAQEAAwEBAQAAAAAAAAAAAAAAAwQFAQIG/8QAMhEAAgIBAgQEBAcAAgMAAAAAAAECAwQFERIhMUETMjNRFCJxgRUjNEJSYZGh8CRTwf/aAAwDAQACEQMRAD8A+4oAgCAIAgCAIAgCAIAgCAIAgCAIAgCAIAgCAIAgCAIAgCAIAgCAIAgCAIAgCAIAgCAwgMXQbmj6hjd7gPEL0oSfREcrYR6s5X4vA3fKwf3Be1RY+iInmULrI8jmCl/ns+0F6+Gt/iefjsf+SMsx+lOgnZ9oI8a3+LHxuP8AyR0x4hE7oyNPiF4dNi/aySORVLpJHuJAdxB8VG4tdiVTT6M2Q9GUAQBAEAQBAEAQBAEAQBAEAQBAEAQBAEBo94aLk2C6lvyR5lJRW8uRA4hm2niOy0mR3U3X4q1Xh2S5vkZl+rU18o83/RGHGq+p/YQ7AO5x/wCVP4GPX5pblJ5mbc/y4bGfyBXTay1Jb2NJ+Vk+Joj5Ynr4HMs9Sex6MyPGdZJZHHw+a8vPf7Yokjosf3TbOpmS6Ubw497j8l5efb9CWOj0d939T0GTaP8Aln7TvxXn4+73JPwjG/iauyZSH6hH9zvxXVqFxz8IxvY5psiU7ui57e4/iva1KzuiN6PV2bOZ2SpGfsKp7e8n5KRahB+aBE9JnHyTNDT4tT6tc2Vo4byffqvSlh2cnyZzw86nmnxI3gzs+I7NXA5h4kA2XJafGS3qluSQ1ScXtbDYsuHYzBUi8UgPZx9yoW49lfmRo05dV3lZ3gqEsmUAQBAEAQBAEAQBAEAQBAEAQAoCIx3Ho6RvO5zz0WDee/sVijHlY/6KGZnQx4+79ivxYdV4gduocY4juYN9u78VbdtNC2it2ZUMfKzXxWPhj7FhwzL9PTjmMBP8TtT8dyp2ZM59WauPp1FPSPMlQ1QPcvJJCyHRZALIDKAIDFkAsg2FkB5T0zJBsvaHDqIBXqM5Re6ZHOqE1tJblXxTJMZPKUzjE8brE2v8vBX6tRkvlt5ozLtLi3xVcmctDmOooniDEGmx0Eo+dt6msxK71x0f4R1ZltEuC/8A0ukMoe0OaQQRcEbllSi4vZmzGSkt0ei8noIAgCAIAgCAIAgCAIAgBQHHi1cKeF8p+qNO08ApKq/EkolfKvVNTmVvK+Fmocayp5znHmA7gOuyuZN3hrw4fcyNOxXe/iLubfQt4as83ttlsjKHQgCAIAgCAIAgCAIAgCA48Tw6OpjMcrQQR4jtCkqulVLiiyG6iFseGSKllmpfRVbqCUksOsRPktPLjG+pXR69zJw5yotdMunYvAWQbhlAEAQBAEAQBAEAQBAEBgoCt5+9TPts81cwPVMfW/0/3RJ5fla6miLd2wB4jQ/FQ5Case5cwZKVEdvYkbqEuGUAQBAEAQBAEAQBAEAQBAYKHGUHNEwOK0oadWlod4u0WziQaw5tmFmTTzIJF/WMbwQBAEAQBAEAQBAEAQBAEBWs/n9TPts81dwPVMfW/wBP90QeEV0uGlomBMEga4OHAkK3dXHJ3ceqM3DuswdlPysvNJVMlaHxuDgeIWTOEoPZn0tV0LY8UGdF15JQgCAIAgCAIAgCAIAgF0BXcyZojpRsM58p0awa2ParuNhSte8uUfcz8vOjUto837FGjo5o66mkqOnNIH24gbW4rZlbXLGnCHYxY1zWRCc+59bXzJ9UEAQBAEAQBAEAQBAEAQBAVn0g+pn22eau6f6pka1+n+6JShpmS0sbHtDgY26H2QoJzcbW4+5bpqjZjxU1vyIGpyxNTu5Shk2eJjO5W45cJrhtRnT022mXHRLb+jEebJYDsVsDm2+u3d/vijw4T51M7DUra3w3wJqhzFTTdGVvcdD8VWni2x7F+rUKLOkiUjkBGhB7ioGmupbU4vozdcPQQBAEAQBActTXxRi75Gt7yF7jTOXlRDK+uK+ZkBX54po+bHtSu4Bo0ursNNtlzlyRSs1OqPKHNkcajEsQ0Y36PEeJ6VvPyVhRxcfnJ8TK/Fl5PT5UTWBZVhpTtn9JJxe7U+HUqmRnWWrh6IuY+BCp8T5shc3/APUqLvH3wrWF+ltKmd+qrL0sg2ggCAIAgCAIAgCAIAgCAICs+kH1M+23zV3A9Ux9a/T/AHRM4P6vF/TZ90Ktd539TQxfRj9DtUZYPKSJrxZwBHURddTknumeZQjJbSSZC1uUqSW5MeyTxboVarzbodyhbplE+230IyTJTmm8FTI3sJJ+asLUE/PFMqvSpR51zZ5nB8UZ0Klrh1Em/wB1e/Hw5dYs58LnR6TTG3jDODHe78U2wn7nN9QXsY+n4x/IZ7m/5Iq8H3Z3xtQ/ijArMZP7pg8B/ku+Hgr9zOKzUH+1Gfo2LyfvGM/3uKceFHs2d4M+XdIx+a9dL+3rCPZv/wALnxuPDyQ/078Dkz9Sf+HVT5DgGsz3yHtOnuXiWp2ftSRNDSq1zk2yeocGp4B+iia3ttr7yqVmRbZ5pF2vFph5YneFCWAUBWMw4JLPW007LbER51zr0gdFfxcmNdE631Zm5WPKy+Fi6Is4VA0TKHQgCAIAgCAIAgCAIAgCArHpC9TPts81e07nb9mZGtfp/wDDqyjiTZ6dgB5zBsuHVbd8FHmUuFjfZkumZMbaUu6J1VTSCAIAgCAIAgCAwnMGUObhDphAEBglDm6AcmzHEjK4dMroCAIAgCAIAgCAIAgCAICr+kM/qR9tnmr2nL87/TJ1pf8Aj/dET+Rp6ZsdXRa3Y0vj335ouQOKtePC2Tru5ezKMcW2iKuo577bonMFzXFPzH/o5BoWu017Cql+FOHOPNGji6lCz5Z/LL+ywB19ypdOppJ79DZDoQBAEBglAVDGc1ycqaaiZykg0Lt7QVp0YMeDxLnsjIyM+fH4VK3aOcU+MO522xvZopOPBXLYiUM+XPc1OIYtT6yRNkaOq1/gbrqpw7PLLYeNm1eeO55DPM04EdPAeWO/iB/vavX4ZXX805fKcWqWWfLCPM9BhuLy84ztj/8AH/4CvLuwYcuHc9eDnT58WxiVuMQA2LZR4E/Gy7F4Fj58jklnVrlzK5BPLUz8lW1MkJJ0uLC/V2LQnGuqviogmUYSnZZw2yaLG7JdRENumrH7W8X3fNZ71Kub2srRofh9kVvXNm2H5qnpZBBiLLX0bKN3j1pbg13R48d/YVZttMlC9fcu8cgcAQbg6gjiFjNOL2ZsqSlzXQ3Q6EAQBAEAQBAEAQBAEBV/SJ6kfbZ5q9pvrf6ZOs/p/uiawb1eL+mz7oVa71JfUv43ox+hyYvlyCp1e2zv426OUlWVZX0ZDkYFV3Nrn7kEcFr6P1WblGDcx+/4q2r8e31Fsyh8LlY/pS4kbNzhPDpVUr22+s0afHRHg1y9Oe51anbXytgyQps7Uj97y09TmnzUM9Ouj2LNeqUS77EnDjlM/ozR/aF1XePausWWll0v9yO2Kdr+i4HuIKjcJR6ksZxl0ZG5or/o9JJIN4bYd50+anxKvEujFlfNt8OmTIzIWFiKnErhz5ecSd9juCn1C5zs4F0RX0yhQr431ZaFnmmVfPmKOggEcXTlOyOsA7/wWhp1CnZxS6IzNSvcK+GL5s7cq4GykhAteR2r3cSTw7lFmZLusfsS4WKqa17k3ZVC8LICIzDgEVZGWuADvqvG8FWcbLnRLddCplYkbo7dyv5QxeSCU4fVHnt0jceI6vwV7Nx42Q8evp3KWFkSrn4FnXsWXHsJjq4XRvGtuaeIPAhZ+NkSpmpI0MmiN0GmQPo6rnOjkppDd0Ltkddle1SpKcbI90UtNsfC65dmXFZRqhAEAQBAEAQBAEAQBAVf0iepH22eav6b63+mTrP6f7omsFP6vF/TZ90Krf6kvqX8X0o/Q7lETmLLmwMOYDvAK9JtHlxi+qI6qwCml6cLCeu2qmhk2x6Mrzw6Z9YkXNkajdqGub3OPkrMdTvXVlWWkY76I78Ay/HRbfJucdu19o3ta+73qDIyZXbbos42LGjfhZGekc/qR9tvzVjTPW+xW1b0fuTuCAfR4rfwN8lUyPVl9S5i+lH6HcoSwUDP1Q1lbSuk6DDtHwcD8lt6bByos26sw9SkldBy6HRN6RYQ7mxPLf4tBfuuvENHsa6o9y1eCfTkWbBsZiq2bcLr9Y4g9RCzr8eyiW00aNGTC5bwJBQFgg8zZkjoWjaBc93RaOziexXMPDnkS5dCll5kcdc+p88zDjE1SY6v6OYww82UXsddBfdvW7i41dSdLlu32MLIyLLWruHbbufVMNquVhZL/EwO94uvmrYcNjifS1S4q0yn5DG1XVjx0S4gfbJWrqPKitGXp/O+xl8WMbIQBAEAQBAEAQBAEAQFW9InqR9tnmtDTPXRk6z+n+6ObIuOhzBTSmz2jm3+s06hSahjNSc4dCLS8v5fDn17Fxuso2zK6AgCAIAgIDPFPylDKBvAB9xF/hdXdPlw3xKGow4qJG+TKrlaKI8Q3ZPeF5z4cN8junz4qIk4qheKDnyISVtJGRcE2cOsF7VtabJwx7JIxNRjGd8EyRzJk/6VsCJ7Y2sFg3Z079FBiah4O7kt9ybK05W7cL2ILBaF2G4kyDb2myN53D4d6vZNscrFdm3NFPHreLkqG/U+kr50+hPnefqQSV9Mx5IbJzSRwu4BfQaZa4UTcVzRg6jWp3RT6M9c7UUdHh7aeK+y6Qbzc3Gqi06yVuQ7H1SJM+pVUKC7lkqJxR4ftH93EAO/Z0Coxh42Tsu7L0pKrG3/AKIz0aURZSmV2+V5d4DQKxq1idqguyK+l17VOT7st6yzUCAIAgCAIAgCAIAgMFAVb0j+on22ea0NM9b7MytY9D7oxUZbZV00L2nYlbGzZeN/RG9I5cqrJRfNbnmWDG2qMo8nsctNmCooTyVdGXNGgmbr71JPFqv+ap7P2I68u3HfDct17low7FYagXika7x1HeFQspnW9pI06ciuzys7LqIsGUAugCA8ayESRuYdzmke8L1CXDJMjtjxQaKd6OpzG6ekdoY3kgdl9fktTU4cShau5laXLhlKp9i7LJNkomKc/HIWHc1gI+y4/JbNPy4EmvcxLvmzkmXslYptlDYfpONkjVsLde8D8Stt/lYG3uYi/Nzd/YvgWKbZT/SRQudAyoZ0oXX7bf7qtXSrF4jrl0ZlapW+BWR6ois61gq8PgqG8HjaHUSLEKzp9bqyZwfsV82xW48Zo9M615qBTUcW+XZc7u0sD5rzgVKvjul2O5lrtUKo9y80FMIY2RN3MaAPALGtm5zcn3ZsVQUIqK7I6V4JAgCAIAgCAIAgCAIDBQFW9I/qJ9tnmtDTPW+zMrWPQ+6JzBfVov6bPuhU7/Ul9S9jejH6HVLC14LXAEHeCLheIyae6JZQjJc0VuvyXC47cDnQv4Fp0v3cFfr1CaW01uv7M23TK380Plf9HF9HxWl6LmztHX0vjqpeLDt6rhIeDNp78SH56SxaVNI9vduT8PhLnXM6tSsi9rIM64c+Uh0cXtPUWlRy0u5dNmSx1Wh9d0dsebaN375o79FC8C9ftJ46hjvpIlKOsjnbtxODm7rjUKvZXKuXDJbMswtjZHeL3KVjo+g4nHUjRk3Nd3nQ3+B8Fr435+LKt9V0MfIXgZUbF0ZfGm4uOKxdtjbT32KNnaJ9NVQ4gwXa0hr+7d5ErY09q2qVD+xjZ8XVbG9FgZmOCSB8sbwS1jnbN7OuG3tZUnh2wsUZLuXVmVzrbT57EJ6Nae8ctS43dK868QArmrS2lGrskVdKjunZ3bLqFkGuedVA2RhY4Xa4EEdhXYycZKS7HmcVJbM+O5igloTJRE3ie4PZ2C6+tw3HISuXVcj5bKhKhursTno8gE0z6uZw5jQxlz2dvYqerSdcfCgupa06KlPxJvp0PosVQxxs1wPcQV8+65RXNG9GcZPkz2Xk9hAEAQBAEAQBAEAQGCgKv6Rmk0LrcHsPxV/TPW/0ytX9D/CZwF4dSwkfy2/BoVbIW1svqXcR70x+hIKEsBACuA0cwHeF1No8uKfU458Hp5OnDGe0tF/JSxvtXSTIpY9UusUcMuUaN2+FvhceSmWfeuW5C9PofY78JwuKlZycLdlpJNrk6nvUNt07XxTZNTRCmPDFEZnfC/pNI4NHOZz2+G/4XVjT7vCtW/RlfUKPFqe3VGMl4wKmlbc89g2XjjpxTPx3Xby6MYOSrKufVFex6sdidUKOF1oYzeV/A236/BX8auOJV4svM+iKOTY8q3w4+VdWQ2ZMPo2vbBRBz5iQDYlze29+Ku4l1/C53bcP9lXJpqTUKeb9yQwqKbCqyCFz7snAu3gHE2NvGyrXyry6ZTS5xJqVZi2xg+jPpYXz59CYebDwTbdo8yeyZ8mwiqpKmommxB+pNmAk2A7wvqLoX1VRjjo+bqlTZOTvZnE6LCWasmkPU1nO+JXK7c57cUV9Wera8Vc4yZ1ZBweR1V9JY10cLQQNre6/DtUWp31qrw3s5Emn0WOzje+x9PXzp9AZQBAEAQBAEAQBAEAQHLidE2eJ8T9zhZSVWOuakuxFfUrYOD7lPy9ijsPkNFV6Nv8Ao3ndY9vUtPJoWRHxquvdGRiXvGl4FnTsy7seCLjUHishpp7M2lJNbo3Q9BAEAQBAEBhw0Q40n1KZieR9qV0lNM6Hb6bRexvvtZatOppQ4bI8WxlW6Y3Jyre2554plJ8NEYqMkvJvISbOeOq69U58Z3KV3Tt/R5uwJQp2q69/7IPBYa6k0ioBt8ZHAl33rDwV3Inj3PeVvL2KdEMinkq+fuaYiat1dSGtsCZGbAFtBygvuXqvwFj2Kn2/+HLHc74O33PqwXzJ9Kay7j3FdXVHmXRnzfIODQVQqOWYH7Mlgdd1uxfQalkWU8Cg9uRh4GPC3j4l3LlS5XpIjdsLb9vO81kWZt8+TkacMOmHREu1oAsNAqre5aSS6GyHQgCAIAgCAIAgCAIAgCAjsYweKrZsStv1HiO0FTUZE6ZbxZXvxoXx2kVMUlfhh/Qnl4R9U6uAWlx42Svm+WXuZXBlYr+XnEksOzxTyc2a8L+IcNPeoLdNsit4viX9FmrU63ymtmWSnq45Bdj2u7iCqEq5R6o0I2wl0Z7XXgkMhdAQBAEAQGEACHCh5x/6pR7W64t37YW1g/pbDHzf1MPqX0LFNk5MVqRFDJIdzWOPuCkphx2Rj/ZFfLhrbKr6LactppJP5khI8NFp6xNO1R9kUNLjtBv3Lqsg1AgCAIAgCAIAgCAIAgCAIAgFkBiyAjsRwOnqB+ljaT12sfeFPXk2V+Vla3Fqs6orlRkJoN6aeSM9V7j4WV6Opt+pFMoy0vbyS2PE4Xi0H7OdsjRwO/4j5qRX4VnmjsR+Bm1+WW6H5axaPp0zXDrAP+S58Nhy6T2HxGbDrEHOdWzp0bvC/wCBXfw6mXlsO/iFy80GPz+l/wCyk/8Ab/FPwqH/ALF/37nfxSf8GPz7mOjaKS/93+Kfhda62Ifidj6QZj86sQf+zoz4g/iF34HFj5rB8bkvpAx9IxqfcxkXhbzJThwK+7ZzizrO2xacu09RHAG1Tw+S5JI3WJ0G5ZuTKuVm9a2Ro40LIQ2se7IL0hYbI9kdVCLvgdtW42Bv5q5pl0Yt1z5KRV1KptKyPVHvheeqSSMGSQRutzmu6+Nl5u0u+MvlW6O06jU4/NyZCZkzAcSIoqIFwcRtv3CwPX1K5iYixfzrn06Iq5OU8j8uou+DUDaaFkLdzWgX6zxKx77ndY5vua1FSqrUUdyhJggCAIAgCAIAgCAIAgCAIAgCAIAgFlzYGLLoFkAshzYWQbIWQbIzZDpiyAygMFt0Obe5D1eVaOV20+BpPu8lajm3xWykyrLCpk92juocMhpxaKNre4a+9Q2XTs8z3Jq6YV+VHVZRkplAEAQBAEAQBAEAQBAEAQBAEAQBAEBw1+KxwFrZCQXXtYE7rXOnepK6pWLeJFZfCD2Z701UyUbTHBw7D59S8yhKL2keo2Rkt0ewK8nrcyh0IAgCAxdDm4uh0XXNzhqyUOvYg2NjY7j1L0011Ckn0N1w6EAQBAEAQBAEAQBAEAQBAEAQBAEAQBAVh/LS1r5Yg1whaIw1xIBcec+xAPDZV5OEaVGXcz2pTv3S6GsUklNI+R0YEk5a2OFp05oN3ONtN/wSUYWJRT5LuzilOuW+3N9iTpsXA5Rs7eTdGA52u03ZdexBtruPBQSo6OHNMsRv68fJo3jxyBzXuDrbDdpwILTbgedZHj2JpbdTqyINNnTR17JYmytPNcL6kfFRzrlGXCSRtjKPEdHKDrXnY9cS9zUzNAuSLdd0UW+SHGttyOxDEXNlZDGG7Tml13GzQ0dXWddymrpTi5y6EFt+0uFHLV4lPHBI57A14LWtcDdp23ABw46XXuNUJTSiRytmoPdGlXhr4ojNHK8ytbtXJuHWFy0jqO5eo2qU+BrkclU4Q40+Zrg9SG1DuDZ42yt9oaP/ABXbob18uqexymfDPn3J6CpZJfYcHW32N7KpKLj1Lqkn0PZeT0EAQBAEAQBAEAQBAEAQBAEAQBAEAQGjYwL2AF9/aj3fU4kl0RwYpQOkcySMgPjJtfokEWIPUpqrFFOLXJkN1Tk1JdUR9RhsuxLI8CR8myHMGgDGk81pPHUlTRtjvGK5JFeVMtm31ZxMgk5Ooux5YItmMyAGTW926bwNFM5R4o7Nb79uhEoPhe6e39no5kYdTCQWg5I8CG8pzbbQ7treo93tJx82/wDwe+FKUE+mxySNa+JwYXBhq2tGpGlxcDiAp93CS368JF5ovh6bnRi1PydQ1hLGxCOzNu+xe+vj3qOqSdblz337Hu6O1ii+mxrDA3kI+ViM7A9427EOaCdC0by1cm/nfC9hCPyLiW57UeFtke9sbZGwOjLXBxOr7ixaHG4suTtcYptri3/4Owq4pbR3227nvVYVVyxiF0rWtGnKNvtltrWLbW3dq8xupjJySPcqLZR4Wzt/IjHsjbMNsx7iObwtuBUHxEk249yZYyaSkSFNTMjGyxoaOwWUcpSk92yaMIx5RR7LyewgCAIAgCAIAgCAIAgCAIAgCAIAgCAIAgMIAQhxpM4MQw4ylrmvLCARuBaQetp0UsLeFbMgsp42mjfD8PbCzY6XOLiTqS48Vyy1ze57rpUI7HU+JrukAe8XUabXQkaT6mQ22gTfcbGQmx0ygCAIAgCAIAgCAIAgCAIAgCAIAgCAIAgCAIAgCAIAgCAIAgCAIAgCAIAgCAIAgCAIAgCAIAgCAIAgCAIAgCAIAgCAIAgCAIAgCAIAgCAIAgCAIAgCAIAgCAID/9k=;" vertex="1" parent="1">
          <mxGeometry x="748" y="596" width="78.16" height="69" as="geometry" />
        </mxCell>
        <mxCell id="3mXTTDO88YAGcUnz2wc8-63" value="Login / Signup&lt;div&gt;&lt;br&gt;&lt;/div&gt;" style="text;html=1;align=center;verticalAlign=middle;resizable=0;points=[];autosize=1;strokeColor=none;fillColor=none;" vertex="1" parent="1">
          <mxGeometry x="184.5" y="82" width="95" height="41" as="geometry" />
        </mxCell>
        <mxCell id="3mXTTDO88YAGcUnz2wc8-68" style="edgeStyle=orthogonalEdgeStyle;rounded=0;orthogonalLoop=1;jettySize=auto;html=1;entryX=0.281;entryY=0.036;entryDx=0;entryDy=0;flowAnimation=1;exitX=0;exitY=0.75;exitDx=0;exitDy=0;entryPerimeter=0;" edge="1" parent="1" source="3mXTTDO88YAGcUnz2wc8-18" target="3mXTTDO88YAGcUnz2wc8-8">
          <mxGeometry relative="1" as="geometry">
            <mxPoint x="195" y="206" as="sourcePoint" />
            <mxPoint x="313" y="119" as="targetPoint" />
            <Array as="points">
              <mxPoint x="270" y="124" />
              <mxPoint x="270" y="216" />
            </Array>
          </mxGeometry>
        </mxCell>
        <mxCell id="3mXTTDO88YAGcUnz2wc8-69" value="userId" style="text;html=1;align=center;verticalAlign=middle;resizable=0;points=[];autosize=1;strokeColor=none;fillColor=none;" vertex="1" parent="1">
          <mxGeometry x="206.5" y="218" width="51" height="26" as="geometry" />
        </mxCell>
        <mxCell id="3mXTTDO88YAGcUnz2wc8-70" value="&lt;div&gt;Produce user details event&lt;/div&gt;" style="text;html=1;align=center;verticalAlign=middle;resizable=0;points=[];autosize=1;strokeColor=none;fillColor=none;" vertex="1" parent="1">
          <mxGeometry x="505" y="82" width="160" height="26" as="geometry" />
        </mxCell>
        <mxCell id="3mXTTDO88YAGcUnz2wc8-71" value="&lt;div&gt;Consume user details event&lt;/div&gt;" style="text;html=1;align=center;verticalAlign=middle;resizable=0;points=[];autosize=1;strokeColor=none;fillColor=none;" vertex="1" parent="1">
          <mxGeometry x="502" y="157" width="167" height="26" as="geometry" />
        </mxCell>
        <mxCell id="3mXTTDO88YAGcUnz2wc8-74" value="&lt;div&gt;Store user details&lt;/div&gt;" style="text;html=1;align=center;verticalAlign=middle;resizable=0;points=[];autosize=1;strokeColor=none;fillColor=none;" vertex="1" parent="1">
          <mxGeometry x="539" y="269" width="111" height="26" as="geometry" />
        </mxCell>
        <mxCell id="3mXTTDO88YAGcUnz2wc8-75" value="&lt;div&gt;Produce expense event&lt;/div&gt;" style="text;html=1;align=center;verticalAlign=middle;resizable=0;points=[];autosize=1;strokeColor=none;fillColor=none;" vertex="1" parent="1">
          <mxGeometry x="523" y="351" width="144" height="26" as="geometry" />
        </mxCell>
        <mxCell id="3mXTTDO88YAGcUnz2wc8-76" value="&lt;div&gt;Consume expense event&lt;/div&gt;" style="text;html=1;align=center;verticalAlign=middle;resizable=0;points=[];autosize=1;strokeColor=none;fillColor=none;" vertex="1" parent="1">
          <mxGeometry x="526" y="517" width="151" height="26" as="geometry" />
        </mxCell>
        <mxCell id="3mXTTDO88YAGcUnz2wc8-77" value="&lt;div&gt;Store expense details&lt;/div&gt;" style="text;html=1;align=center;verticalAlign=middle;resizable=0;points=[];autosize=1;strokeColor=none;fillColor=none;" vertex="1" parent="1">
          <mxGeometry x="523" y="603" width="133" height="26" as="geometry" />
        </mxCell>
        <mxCell id="3mXTTDO88YAGcUnz2wc8-81" style="edgeStyle=orthogonalEdgeStyle;rounded=0;orthogonalLoop=1;jettySize=auto;html=1;flowAnimation=1;entryX=0;entryY=0.5;entryDx=0;entryDy=0;exitX=0.538;exitY=0.036;exitDx=0;exitDy=0;exitPerimeter=0;" edge="1" parent="1" source="3mXTTDO88YAGcUnz2wc8-8" target="3mXTTDO88YAGcUnz2wc8-44">
          <mxGeometry relative="1" as="geometry">
            <mxPoint x="472" y="388" as="sourcePoint" />
            <mxPoint x="758" y="388" as="targetPoint" />
          </mxGeometry>
        </mxCell>
        <mxCell id="3mXTTDO88YAGcUnz2wc8-82" value="&lt;div&gt;Expense&amp;nbsp;&lt;br&gt;Message&lt;/div&gt;" style="text;html=1;align=center;verticalAlign=middle;resizable=0;points=[];autosize=1;strokeColor=none;fillColor=none;" vertex="1" parent="1">
          <mxGeometry x="214" y="387" width="68" height="41" as="geometry" />
        </mxCell>
        <mxCell id="3mXTTDO88YAGcUnz2wc8-84" value="&lt;div&gt;Manage&amp;nbsp;&lt;br&gt;Expenses&lt;/div&gt;" style="text;html=1;align=center;verticalAlign=middle;resizable=0;points=[];autosize=1;strokeColor=none;fillColor=none;" vertex="1" parent="1">
          <mxGeometry x="214" y="551" width="71" height="41" as="geometry" />
        </mxCell>
        <mxCell id="3mXTTDO88YAGcUnz2wc8-85" value="" style="shape=image;verticalLabelPosition=bottom;labelBackgroundColor=default;verticalAlign=top;aspect=fixed;imageAspect=0;image=data:image/png,iVBORw0KGgoAAAANSUhEUgAAARMAAAC3CAMAAAAGjUrGAAABKVBMVEX///88o93//v////38//////v//v3T3+f///gASXAATHIASGsASmoEVnX9//07pN3O3OALVXsAVXj4/fYATnEAU3s8pNr///T1+vwAUW8/od1MqNsASnUAU3gAUHZLqtoAUH47ouMbYHuWr7yIq7kAVIIASWUAUm7q+fnW5+nr9PXd8/kzm9U3odY8nswARna42Oeh0d+90dd5mKVVgpF6pa0qaX69ztEsZ4ZNgJU8coypxc7E4OgAP3J/nK8APWqUsMCtvcstao+ArLOuxcpXf5pAdokzbnp1nrNpi54VWnLW5u4zaH7b6+qVy+BCgotMrNTg/f6HutZArM2Jv91quuRqsNDO7O6BveFtt9Nor92gzuPc9e3D4vOaz9+23eQ6m+OxzeBnj5r1X68iAAATH0lEQVR4nO1di1/ayNqeZC4GMBMzMAmmRIxKDSShqPSi8LXds61nK+KxXcVbe7rd//+P+GZABZUg7Knl8uPZ33a3GmDy8F6eeeedCQBzzDHHHHPMMcccc8wxxxw/EUT8M0cXCBOwvbMtWKHquMcyISAaWKg+X01UiwDTcQ9mMkCA/3KZuzpzN1+WyNyDJLTt5aTJVhPcZJnlbazicQ9o7CAAMc5YorpdzbmcLyMAxz2kCQBaZu6r14Dg12+YnkFkzglAKKMn14XBIPw+aS4DNA+zt5xAyYk750RCcpJrcwLnnNwALZvurg9UUNp1WQKp83gCAcpwzjO/+xtCpPBMdp535CxnI8WZmdxMFhhPbcz1SQfbexmTMcYTe0vjHsqkAGmwtsZMd60GtLmRdKAipNUXzed1gDEa92AmB2QhZaYWxj2KyQJZWJxzcg9zTh5izslDzDwnKlBHrZb9A07ER0xPUU5KjOzrbcHN8AXn0TnBYHs7CwiGcPLTNwHZpfXdxdz/7aARRjsqJ0hDb9/lErvrS1kwBaX+3w5yGdc0zczLEV40up3s5Bhz3WRSr404vl8NQtXSMmcu4ys6z+wATIb8EkfjRNjfTpKZK5ybgpdS+weTCwq2c0xPvXn7PqGbuZeIDDnakTgR7/oyxczE+7eHi5zltv/xaH8NKNhwXVZEBPyWYCxXG/YbhKNwAkFtUTcTNQJwQ2d8Y5Rg/usBEf6XW/gIJDk14UBvhy0QkXpCTwxbKEBgp8B4TWZ8us/YG6BOdLmSNJOuLDirCCwkeebD0AvjxdRqojjktYjUUiy3JKhAYD1jLjYne/kD1pLuSk3YCwW/ZwqZ5rCcEPrbXm3Y2gnCQVJf2ZDVbFzLmMnhmR8PaiJFsromJNW/9cIegsN6uryrYa+FAO0zvgcgJHXdNHMfJlui4PTHnMjC9YX3H02W3HiaLxAibSPDV6vvi/VN00xW0xNd1iYQpaurQp9kNplpFvZ8/BTfIFH9fZfpyysZ5nK3mtXQpFcs0e6KLgvOqy7L7Zewqv5sQQVh6VCowhyXde3MbnaSjeQaOL2bLORerO3IsvO/sz9dZELsH66abO2PN4mkm9vN/nTOnwBCZW58qpUQEHqK8Vf+4/KeiGAp/yv0BnnUC1RByYrpHhQhCmp/b2ThRGuTeyC4qHM9s1fCAD1CC6Uo2wZ6fLGY+IcZQUlj2FnDZEEFxQMxdz0sPZYqsYZtTQJr9iNWJR2nwJigZDo5EZbSWOOme/j1kYwclJ/lr1EuPfKW/qEIrGsNjKaTEomiiCnJwxIZ4D4qaUSe0oZhhI1B/BFYeiUC98HZlBpJG1hrHDDOX5UG3IMK6pFi3HBSj+cEEek4uqkXp9VxOiCgqXNz9VUpPkyooBJZ1jUnRmVAPzUuCcfhB82pZkSCyECb+RQrvwnSrpyO6yiWp2zhAUL9U5K5wkqeZqC/EJA0zNVkNfbbV1Xt6JYTRznCsRoMgf+8kJRMPSdCUuFmdX/pRoup3cQMhXARfyD/WLnlxDj+jOG919++gizsVosAPaZ2pgFqj7ynWE3f/FQINNsOKl/ySg+c/JdKgDSh4jqXQSzQtQw02WWB4dEtlyJSqlxbDFKJHWydRo7jWL2kGJ4Xtra+3vCgElgJSM9bzQgnN1aiUhyUvSOEkVzXRI3z0DMMkXJ6OTHEXwzHC08aRNYZqJ09CvMBvJW3055y7kJVkdY4dhTjoqQhop1dhI4SCyuKLs4gJSR9oRhROdBmxDweAJf+FILV8Y6/av5J6DmKE8eKFSnSVnxcOvaEc3nlYAqKJP8AlAR/etIzLCM8jRTL8mIpEbJWEGZ4lgw3lmFERjkYdkVxqpAOyrccDPCaO7i+zlKc48/abIUSIEtBIrwOyUQfs/G842DqtdpdEAgbIjLE37QhfcoyjDhzEZZSnjFSCNW2onhKpEYxOgYRCyv8Me67+LkQE73s0YAoIibEoScQT4nhfJmxeCKUBkQtz3rIirAPJ3x2fvKj8q1ydXWRF9Q4zgMfMhzlND2De49tPy/mePe9xotaPwIfdwQ/TPvBViuy7huMYXllf7aiSRsqts+E+rpHSXhepCQtpoPtO0YIaxgFJ9E96oRCadgzaCZE3NOl4nW/esMR2q1pq4hKIkqNRqOEMKZUzJ2bQvcLm7r1NEO5xGjiF0BHB0TE74knjmdYUUVQgDW/fnSaL0dRVC6fHp2lMUwj8j0yvF5OjBKdQd8RX/+5Yt06hZX/6zKAGKv+VT6MnBvt4nj5/2Y1m+CgpXi3FwuTOdemab1vWNhnoeVEt9+800prKkRbUdSe9nTu37EsxShvZTVK/AvBk3HzYyM8m8XjHezLbuR0PK/lp1G6dNlHtBhGKxCJKH3q9Yg4ozWDhkLOuvUSIeOPfQ3Y9eheke2GsbCuUVw6Nm5DsmKE9VmLsQTRix6L8GSVyP4eKn3lvKAsqtjIFhPp29dYyrlISTNVRaFaM+pxhKhCKP5WjhX7llOuYxVUwp6fRU088naPSYaK7KseZe+da1j96imxpIhLowAj+7RbcTG8q6EbBqcCBOFnSv46OhhKGFCcvjSMfsHkmgJLaaUxanbzsZD3CM+S70ARYbtG4J1gal+FfcnowtvCSDvpsaRwxoqyeKt7c0bYxFoQH0xumFNKwsF6mPO2psF5bmXUwKYRADHBF94tJcqljfCVEu84HeSVK5tqp7cCxvC+INheE4w1F9qZSoJB7S5PDQQ6bWhZENsHS+RtQO1rtxhrhBURTZ494jnywrJPcG/qKQc2xRTHbh+DhFz3xaljm0RD7f1aB7XYrgHgB8XK1pFQJDd35kQBss+8PiTcZUQEEKHcgm7dQMyFjiqVehDb4EPBbzfjGc9ODUIBbqRczrnJeSKuDY1ky2GoeJ7VTcTOMVbvxM44ThzlSEPp455po5gqOqH3LNvvGxD+gr+mCmIwAs8bcCyxh6q4WmAsmUhwc+VTzEKucJL7YcM5xwi3hlnhcVoa0s57LcqQNfxn6X4BBUMK/87pPJlJcsaqcCx5G5HtBC/sr/++vs/Zi5j9SP04uQLUfzagQt+9Ml8SwfgBe/05EdFkKVVw92piPK7+fBuMo79ao4fczQgu8FJS53tLCwtLXTSveyVkML17U4ZTgdgftGrRReRTXInlhNDmUi/qe6yQWiIALyQ4O8yOY6MTXn9hujvtjpC3KybL5XKJWyTffejY7kNOLOUbRoE3DCVO1KTwWywnuPbuzocmXMZ3ZEOHGI+eq2m/nhIAqqs81ZAtFHYjaep3wPjf7e3o/TgxvmHQHJKTIonnBINPIpyxOx+bOLNVjEAxoReq46CErGfYyo5QRxTsZDiT1nGDTDIRaydG+A3T4mPCvsNJ2BjACcQfup+YFKE+wdjqtZ1wllwfR+LRsq84WxTxhIh4srp3x7WXGrQT4h5yoigVTEsDFkp77aSEYcWL4QQR0rgfT3iqTgBZeO7yV2PZ1oPx9iLX90Te2eNyF+cdEAyuOTHuc+JdYZTN37/RfvDKaQyu4jgRn9GrUwgBCyk5nvX1PZ2ltsk45L34zCrTeUZuuHI/YQQJvIGUlO2wT2QubqeYbkb2LghKXw5lJ5dpTL/0Xil7lgQn11y0Wb/9TETgJ64LweZKfSJS8VjkPWm8K7iua5puotTXUgkk2cjzotDzlB4di1T7ZKhcfKKp9LhnlUe+VRhFfXWsmEfAIMXlwQ4uTwXjmu+QdK09u9DXarC/94rvzw/qlcrRcQ8HVoC0etSPg3sIzygKuhcaRv5o63s98GOL1aRmisEIjCXA3gzienuW8Jz+v4eUUiGzcXCzHUWiQtPp8kMK7sOL0kKydb3OiXxbvJcaf4YbvBnPZJ9g0IEKuvUTxbrUEP6v94iUNQzvSuTby24rgncx7tv4ucDd9GEZXhNq/mOG4hhlH+Mg7PaieFtglpa9kLy52y5G50TL2lvewDqbJeaKGqAnXWuywuKEn0swIiC9qdpLyIIsuhzkOOLfyzTVvkY9P8nPxI6MWxAExZy/G0BaQsF8HlClFjZV/owJ7imeRELrzdTRsoSKzNOVKEZY0YDIx17+gcpt/9qynOi7mM197y7vKPkwwJN99suogJBedPtjLSMKbKR9L3tGv5ZYoVaj71gE2OOumVjO6UyteAHJCS729hUolz7B2kI56rOiYRjW8XeNaP6x1V1Dj8KGPVMRtj1D01pKTxeB18piRIJL2cLlWF1iHGkmraamYv/yr64NCTPRZrB7q3d5VN77RVYTU8QrMR9ybrSqIe3GiLYIpXb2oseCZJ/S7DEiNIp90rMhw3L+Og6EbrH9rfxt9HUcI8xvZaGWJY0/e5tky94XPCs7AXuhZb/2xAcZU8rfKU1DLV0/Oi1HYtarRK2jehbaiNqVctTjaCKNf56xpNOBSkjr7tYMJ2wFgCKqaQSVms1mKY2xjRGyv55Gitd7pXIJ4UwJtg7UNDkr3+ktNwxHCb80bRupErJfmKgI4+L5X56Tv3NlFDW0JzmaaZxQEbBLx/d6CRzZ7Omc/gjSVApUeUqOH1QuRci1err72qQoYkI4Y/syZEN9uqX0heOF+fOrSqVe+XF1/iyM2cRjtfCsJR4kp7h95zdyg7Ejy4peGEqCYsoqlvIlO+6b+Mkg6LvXvwlHtpVb7d2h7RBjGP1LCEbkzNg+LyHug0H7AR+H5ZUHHqEzhVDJ/7JvVNpJORjLAvDTgUCgakEn7ziG5SkxHtILcZ0UKe0NCiLvBDPYby/0ibCUzhaM8LSsRAO2TLadxXK88mm5nZQtp3yGpuG8vhGhUkza7mNExwH2TzxvcN2+fV4B9FtRx3Hs+Na+qYY86kMxwou0RlUanIcywwrRZtwTcnJS5CjRRaBhpPkXQu2WP9uz+ihFoduD6K8jROQUV8Nn56H34OgCIVdkzPHOz+z2AQUEHUm7mjlh3wXEzYq4V3mziGDNv2qF4d3A4gjtFrWufDEtlJZBBY+VAM/cA5/lJF+TN6iqSKUdRsTUhkJhKzSonPT0XQhfkucpUY0SguUBW8KkoCZe0vYcWWgT88UZKKRA3PhYLcY/CZF0z90SyejYl3d+d7n3+i+EFKvVRs85XNMLXDwovNiN/33P+WzCTo7ie2moPJ/toDEDlEB5iiyP6ymWZgS3buZ9IgldkdhSNAJ/50x+UJRHG04zLxAXddfkh0H8GY1YbrC+5sRxKgOW+nDpcIW5B00y3SEFFzcLbOWwBGPzhtBy9fC6cC84GbQ7FApSXJMdFKdhH08cVCKtxD0skUHCnARhp8dAiDVn0AmXIv0IUrhwHzwFPTf90XYcpgtKBspyIfnz+WfP5FnDx/lg8Fvi4NBlrt6Y2sV0mXHMlVelx47AxbYmT3WUB1Lb9sArEVRLh8w09eKUHfzY7veT28+Km8wUseTxs6M7hXsh0+gj7Il3xv7eCmN68aZkPR0HU0O08XetCbWGzkx26A91KnBb0alClj2q4aFwH/G+elHDzQ+fNsTkaQpIwdndBE8m1v5Y40w6zk83clg65CZfe/smkSzkqtkp4ASnP4oR67zAmOnuC8f5+ZyIlMwZ50zuyuDVmA7iyQGBfjVj6iu5RV0Me7/0JMUxCEp7rmnyRIYzfUWQMtmsUPQxo3O3Xny/W2CrG0/zIRDhjRXOquvF+oppruwOF7LGBUpqLxjbFMJLA/vyOU1D15XlvDk9tJehPcYPEdTA0oHu5ib7qYmCk6S++kEIdgo3WCFTiunDfwBIa/u/DesDKmgKY9yQ53vjHxm+MunPrmpk9NX2c9/wUrKwOPTzAUkxtTr08wEJ+JAzk0vtKtx6hmeakz3/oeQNX9lFVAWwxvnKztAvXEgVUsM+H5CCnVWWqclmBSg89BBNdLWWQPLHCl+uU0xqCZMlakM/C2/U50hy83kNYFrUZSSfaE4gBdsJzhJv3m6kCubiDqJDTtZGewYrQTviU1Lvd/6VaD9vdKJXCAklpU0hGliGmyy5A/CT2ImMKDs5k/FVua1rebJTcRvrLLfourr5/OUICxCjPr9YWEpSZ/pyLsfWJ1uxSRBNPuc6kXy3g0Y4anzkZzpraOddMvFxfSk9+hB/PZDcSOtvj3aIwujPuYZg6bUv1c+0rK1LAxlpqKNzMvuYc/IQc04eYs7JQ8w5uQco5nLFRffFElFn6pTL/wUIYVhP6YklotEpSaxPDw3W1hjT12qTPZv7ZSCIkKW9hFzIchP7dTDd6+M/B5iqGzl51NxBsmCu5jamu4/i5wASlOEu21wvbWSWGduc7ALRLwJCjBU++vKhs7ucLw9f1p5hIJRhq+vyaYh4PekugzkpHU5y6/J/5pzcAKnLZu69yD8IrCfNTTSL+0NHhIrQJmeHrxGm26+4uYgmu7r6S0AoZZzx5O52NcGYm0TDLpPNMijd3lxleiHHTJZj2+MezmQAodLLTddkppt8WZpPAiVUgDSwsJtbTVWLYPYeFvlPoSIMtndegydo4JlmTFMF/ldBBZPdHDDHHHPMMcccc8wxxxyTjv8H+yrz+Vshb5UAAAAASUVORK5CYII=;" vertex="1" parent="1">
          <mxGeometry x="417.5" y="65" width="55" height="36.6" as="geometry" />
        </mxCell>
        <mxCell id="3mXTTDO88YAGcUnz2wc8-86" value="" style="shape=image;verticalLabelPosition=bottom;labelBackgroundColor=default;verticalAlign=top;aspect=fixed;imageAspect=0;image=data:image/png,iVBORw0KGgoAAAANSUhEUgAAARMAAAC3CAMAAAAGjUrGAAABKVBMVEX///88o93//v////38//////v//v3T3+f///gASXAATHIASGsASmoEVnX9//07pN3O3OALVXsAVXj4/fYATnEAU3s8pNr///T1+vwAUW8/od1MqNsASnUAU3gAUHZLqtoAUH47ouMbYHuWr7yIq7kAVIIASWUAUm7q+fnW5+nr9PXd8/kzm9U3odY8nswARna42Oeh0d+90dd5mKVVgpF6pa0qaX69ztEsZ4ZNgJU8coypxc7E4OgAP3J/nK8APWqUsMCtvcstao+ArLOuxcpXf5pAdokzbnp1nrNpi54VWnLW5u4zaH7b6+qVy+BCgotMrNTg/f6HutZArM2Jv91quuRqsNDO7O6BveFtt9Nor92gzuPc9e3D4vOaz9+23eQ6m+OxzeBnj5r1X68iAAATH0lEQVR4nO1di1/ayNqeZC4GMBMzMAmmRIxKDSShqPSi8LXds61nK+KxXcVbe7rd//+P+GZABZUg7Knl8uPZ33a3GmDy8F6eeeedCQBzzDHHHHPMMcccc8wxxxw/EUT8M0cXCBOwvbMtWKHquMcyISAaWKg+X01UiwDTcQ9mMkCA/3KZuzpzN1+WyNyDJLTt5aTJVhPcZJnlbazicQ9o7CAAMc5YorpdzbmcLyMAxz2kCQBaZu6r14Dg12+YnkFkzglAKKMn14XBIPw+aS4DNA+zt5xAyYk750RCcpJrcwLnnNwALZvurg9UUNp1WQKp83gCAcpwzjO/+xtCpPBMdp535CxnI8WZmdxMFhhPbcz1SQfbexmTMcYTe0vjHsqkAGmwtsZMd60GtLmRdKAipNUXzed1gDEa92AmB2QhZaYWxj2KyQJZWJxzcg9zTh5izslDzDwnKlBHrZb9A07ER0xPUU5KjOzrbcHN8AXn0TnBYHs7CwiGcPLTNwHZpfXdxdz/7aARRjsqJ0hDb9/lErvrS1kwBaX+3w5yGdc0zczLEV40up3s5Bhz3WRSr404vl8NQtXSMmcu4ys6z+wATIb8EkfjRNjfTpKZK5ybgpdS+weTCwq2c0xPvXn7PqGbuZeIDDnakTgR7/oyxczE+7eHi5zltv/xaH8NKNhwXVZEBPyWYCxXG/YbhKNwAkFtUTcTNQJwQ2d8Y5Rg/usBEf6XW/gIJDk14UBvhy0QkXpCTwxbKEBgp8B4TWZ8us/YG6BOdLmSNJOuLDirCCwkeebD0AvjxdRqojjktYjUUiy3JKhAYD1jLjYne/kD1pLuSk3YCwW/ZwqZ5rCcEPrbXm3Y2gnCQVJf2ZDVbFzLmMnhmR8PaiJFsromJNW/9cIegsN6uryrYa+FAO0zvgcgJHXdNHMfJlui4PTHnMjC9YX3H02W3HiaLxAibSPDV6vvi/VN00xW0xNd1iYQpaurQp9kNplpFvZ8/BTfIFH9fZfpyysZ5nK3mtXQpFcs0e6KLgvOqy7L7Zewqv5sQQVh6VCowhyXde3MbnaSjeQaOL2bLORerO3IsvO/sz9dZELsH66abO2PN4mkm9vN/nTOnwBCZW58qpUQEHqK8Vf+4/KeiGAp/yv0BnnUC1RByYrpHhQhCmp/b2ThRGuTeyC4qHM9s1fCAD1CC6Uo2wZ6fLGY+IcZQUlj2FnDZEEFxQMxdz0sPZYqsYZtTQJr9iNWJR2nwJigZDo5EZbSWOOme/j1kYwclJ/lr1EuPfKW/qEIrGsNjKaTEomiiCnJwxIZ4D4qaUSe0oZhhI1B/BFYeiUC98HZlBpJG1hrHDDOX5UG3IMK6pFi3HBSj+cEEek4uqkXp9VxOiCgqXNz9VUpPkyooBJZ1jUnRmVAPzUuCcfhB82pZkSCyECb+RQrvwnSrpyO6yiWp2zhAUL9U5K5wkqeZqC/EJA0zNVkNfbbV1Xt6JYTRznCsRoMgf+8kJRMPSdCUuFmdX/pRoup3cQMhXARfyD/WLnlxDj+jOG919++gizsVosAPaZ2pgFqj7ynWE3f/FQINNsOKl/ySg+c/JdKgDSh4jqXQSzQtQw02WWB4dEtlyJSqlxbDFKJHWydRo7jWL2kGJ4Xtra+3vCgElgJSM9bzQgnN1aiUhyUvSOEkVzXRI3z0DMMkXJ6OTHEXwzHC08aRNYZqJ09CvMBvJW3055y7kJVkdY4dhTjoqQhop1dhI4SCyuKLs4gJSR9oRhROdBmxDweAJf+FILV8Y6/av5J6DmKE8eKFSnSVnxcOvaEc3nlYAqKJP8AlAR/etIzLCM8jRTL8mIpEbJWEGZ4lgw3lmFERjkYdkVxqpAOyrccDPCaO7i+zlKc48/abIUSIEtBIrwOyUQfs/G842DqtdpdEAgbIjLE37QhfcoyjDhzEZZSnjFSCNW2onhKpEYxOgYRCyv8Me67+LkQE73s0YAoIibEoScQT4nhfJmxeCKUBkQtz3rIirAPJ3x2fvKj8q1ydXWRF9Q4zgMfMhzlND2De49tPy/mePe9xotaPwIfdwQ/TPvBViuy7huMYXllf7aiSRsqts+E+rpHSXhepCQtpoPtO0YIaxgFJ9E96oRCadgzaCZE3NOl4nW/esMR2q1pq4hKIkqNRqOEMKZUzJ2bQvcLm7r1NEO5xGjiF0BHB0TE74knjmdYUUVQgDW/fnSaL0dRVC6fHp2lMUwj8j0yvF5OjBKdQd8RX/+5Yt06hZX/6zKAGKv+VT6MnBvt4nj5/2Y1m+CgpXi3FwuTOdemab1vWNhnoeVEt9+800prKkRbUdSe9nTu37EsxShvZTVK/AvBk3HzYyM8m8XjHezLbuR0PK/lp1G6dNlHtBhGKxCJKH3q9Yg4ozWDhkLOuvUSIeOPfQ3Y9eheke2GsbCuUVw6Nm5DsmKE9VmLsQTRix6L8GSVyP4eKn3lvKAsqtjIFhPp29dYyrlISTNVRaFaM+pxhKhCKP5WjhX7llOuYxVUwp6fRU088naPSYaK7KseZe+da1j96imxpIhLowAj+7RbcTG8q6EbBqcCBOFnSv46OhhKGFCcvjSMfsHkmgJLaaUxanbzsZD3CM+S70ARYbtG4J1gal+FfcnowtvCSDvpsaRwxoqyeKt7c0bYxFoQH0xumFNKwsF6mPO2psF5bmXUwKYRADHBF94tJcqljfCVEu84HeSVK5tqp7cCxvC+INheE4w1F9qZSoJB7S5PDQQ6bWhZENsHS+RtQO1rtxhrhBURTZ494jnywrJPcG/qKQc2xRTHbh+DhFz3xaljm0RD7f1aB7XYrgHgB8XK1pFQJDd35kQBss+8PiTcZUQEEKHcgm7dQMyFjiqVehDb4EPBbzfjGc9ODUIBbqRczrnJeSKuDY1ky2GoeJ7VTcTOMVbvxM44ThzlSEPp455po5gqOqH3LNvvGxD+gr+mCmIwAs8bcCyxh6q4WmAsmUhwc+VTzEKucJL7YcM5xwi3hlnhcVoa0s57LcqQNfxn6X4BBUMK/87pPJlJcsaqcCx5G5HtBC/sr/++vs/Zi5j9SP04uQLUfzagQt+9Ml8SwfgBe/05EdFkKVVw92piPK7+fBuMo79ao4fczQgu8FJS53tLCwtLXTSveyVkML17U4ZTgdgftGrRReRTXInlhNDmUi/qe6yQWiIALyQ4O8yOY6MTXn9hujvtjpC3KybL5XKJWyTffejY7kNOLOUbRoE3DCVO1KTwWywnuPbuzocmXMZ3ZEOHGI+eq2m/nhIAqqs81ZAtFHYjaep3wPjf7e3o/TgxvmHQHJKTIonnBINPIpyxOx+bOLNVjEAxoReq46CErGfYyo5QRxTsZDiT1nGDTDIRaydG+A3T4mPCvsNJ2BjACcQfup+YFKE+wdjqtZ1wllwfR+LRsq84WxTxhIh4srp3x7WXGrQT4h5yoigVTEsDFkp77aSEYcWL4QQR0rgfT3iqTgBZeO7yV2PZ1oPx9iLX90Te2eNyF+cdEAyuOTHuc+JdYZTN37/RfvDKaQyu4jgRn9GrUwgBCyk5nvX1PZ2ltsk45L34zCrTeUZuuHI/YQQJvIGUlO2wT2QubqeYbkb2LghKXw5lJ5dpTL/0Xil7lgQn11y0Wb/9TETgJ64LweZKfSJS8VjkPWm8K7iua5puotTXUgkk2cjzotDzlB4di1T7ZKhcfKKp9LhnlUe+VRhFfXWsmEfAIMXlwQ4uTwXjmu+QdK09u9DXarC/94rvzw/qlcrRcQ8HVoC0etSPg3sIzygKuhcaRv5o63s98GOL1aRmisEIjCXA3gzienuW8Jz+v4eUUiGzcXCzHUWiQtPp8kMK7sOL0kKydb3OiXxbvJcaf4YbvBnPZJ9g0IEKuvUTxbrUEP6v94iUNQzvSuTby24rgncx7tv4ucDd9GEZXhNq/mOG4hhlH+Mg7PaieFtglpa9kLy52y5G50TL2lvewDqbJeaKGqAnXWuywuKEn0swIiC9qdpLyIIsuhzkOOLfyzTVvkY9P8nPxI6MWxAExZy/G0BaQsF8HlClFjZV/owJ7imeRELrzdTRsoSKzNOVKEZY0YDIx17+gcpt/9qynOi7mM197y7vKPkwwJN99suogJBedPtjLSMKbKR9L3tGv5ZYoVaj71gE2OOumVjO6UyteAHJCS729hUolz7B2kI56rOiYRjW8XeNaP6x1V1Dj8KGPVMRtj1D01pKTxeB18piRIJL2cLlWF1iHGkmraamYv/yr64NCTPRZrB7q3d5VN77RVYTU8QrMR9ybrSqIe3GiLYIpXb2oseCZJ/S7DEiNIp90rMhw3L+Og6EbrH9rfxt9HUcI8xvZaGWJY0/e5tky94XPCs7AXuhZb/2xAcZU8rfKU1DLV0/Oi1HYtarRK2jehbaiNqVctTjaCKNf56xpNOBSkjr7tYMJ2wFgCKqaQSVms1mKY2xjRGyv55Gitd7pXIJ4UwJtg7UNDkr3+ktNwxHCb80bRupErJfmKgI4+L5X56Tv3NlFDW0JzmaaZxQEbBLx/d6CRzZ7Omc/gjSVApUeUqOH1QuRci1err72qQoYkI4Y/syZEN9uqX0heOF+fOrSqVe+XF1/iyM2cRjtfCsJR4kp7h95zdyg7Ejy4peGEqCYsoqlvIlO+6b+Mkg6LvXvwlHtpVb7d2h7RBjGP1LCEbkzNg+LyHug0H7AR+H5ZUHHqEzhVDJ/7JvVNpJORjLAvDTgUCgakEn7ziG5SkxHtILcZ0UKe0NCiLvBDPYby/0ibCUzhaM8LSsRAO2TLadxXK88mm5nZQtp3yGpuG8vhGhUkza7mNExwH2TzxvcN2+fV4B9FtRx3Hs+Na+qYY86kMxwou0RlUanIcywwrRZtwTcnJS5CjRRaBhpPkXQu2WP9uz+ihFoduD6K8jROQUV8Nn56H34OgCIVdkzPHOz+z2AQUEHUm7mjlh3wXEzYq4V3mziGDNv2qF4d3A4gjtFrWufDEtlJZBBY+VAM/cA5/lJF+TN6iqSKUdRsTUhkJhKzSonPT0XQhfkucpUY0SguUBW8KkoCZe0vYcWWgT88UZKKRA3PhYLcY/CZF0z90SyejYl3d+d7n3+i+EFKvVRs85XNMLXDwovNiN/33P+WzCTo7ie2moPJ/toDEDlEB5iiyP6ymWZgS3buZ9IgldkdhSNAJ/50x+UJRHG04zLxAXddfkh0H8GY1YbrC+5sRxKgOW+nDpcIW5B00y3SEFFzcLbOWwBGPzhtBy9fC6cC84GbQ7FApSXJMdFKdhH08cVCKtxD0skUHCnARhp8dAiDVn0AmXIv0IUrhwHzwFPTf90XYcpgtKBspyIfnz+WfP5FnDx/lg8Fvi4NBlrt6Y2sV0mXHMlVelx47AxbYmT3WUB1Lb9sArEVRLh8w09eKUHfzY7veT28+Km8wUseTxs6M7hXsh0+gj7Il3xv7eCmN68aZkPR0HU0O08XetCbWGzkx26A91KnBb0alClj2q4aFwH/G+elHDzQ+fNsTkaQpIwdndBE8m1v5Y40w6zk83clg65CZfe/smkSzkqtkp4ASnP4oR67zAmOnuC8f5+ZyIlMwZ50zuyuDVmA7iyQGBfjVj6iu5RV0Me7/0JMUxCEp7rmnyRIYzfUWQMtmsUPQxo3O3Xny/W2CrG0/zIRDhjRXOquvF+oppruwOF7LGBUpqLxjbFMJLA/vyOU1D15XlvDk9tJehPcYPEdTA0oHu5ib7qYmCk6S++kEIdgo3WCFTiunDfwBIa/u/DesDKmgKY9yQ53vjHxm+MunPrmpk9NX2c9/wUrKwOPTzAUkxtTr08wEJ+JAzk0vtKtx6hmeakz3/oeQNX9lFVAWwxvnKztAvXEgVUsM+H5CCnVWWqclmBSg89BBNdLWWQPLHCl+uU0xqCZMlakM/C2/U50hy83kNYFrUZSSfaE4gBdsJzhJv3m6kCubiDqJDTtZGewYrQTviU1Lvd/6VaD9vdKJXCAklpU0hGliGmyy5A/CT2ImMKDs5k/FVua1rebJTcRvrLLfourr5/OUICxCjPr9YWEpSZ/pyLsfWJ1uxSRBNPuc6kXy3g0Y4anzkZzpraOddMvFxfSk9+hB/PZDcSOtvj3aIwujPuYZg6bUv1c+0rK1LAxlpqKNzMvuYc/IQc04eYs7JQ8w5uQco5nLFRffFElFn6pTL/wUIYVhP6YklotEpSaxPDw3W1hjT12qTPZv7ZSCIkKW9hFzIchP7dTDd6+M/B5iqGzl51NxBsmCu5jamu4/i5wASlOEu21wvbWSWGduc7ALRLwJCjBU++vKhs7ucLw9f1p5hIJRhq+vyaYh4PekugzkpHU5y6/J/5pzcAKnLZu69yD8IrCfNTTSL+0NHhIrQJmeHrxGm26+4uYgmu7r6S0AoZZzx5O52NcGYm0TDLpPNMijd3lxleiHHTJZj2+MezmQAodLLTddkppt8WZpPAiVUgDSwsJtbTVWLYPYeFvlPoSIMtndegydo4JlmTFMF/ldBBZPdHDDHHHPMMcccc8wxxxyTjv8H+yrz+Vshb5UAAAAASUVORK5CYII=;" vertex="1" parent="1">
          <mxGeometry x="416" y="220" width="55" height="36.6" as="geometry" />
        </mxCell>
        <mxCell id="3mXTTDO88YAGcUnz2wc8-87" value="" style="shape=image;verticalLabelPosition=bottom;labelBackgroundColor=default;verticalAlign=top;aspect=fixed;imageAspect=0;image=data:image/png,iVBORw0KGgoAAAANSUhEUgAAARMAAAC3CAMAAAAGjUrGAAABKVBMVEX///88o93//v////38//////v//v3T3+f///gASXAATHIASGsASmoEVnX9//07pN3O3OALVXsAVXj4/fYATnEAU3s8pNr///T1+vwAUW8/od1MqNsASnUAU3gAUHZLqtoAUH47ouMbYHuWr7yIq7kAVIIASWUAUm7q+fnW5+nr9PXd8/kzm9U3odY8nswARna42Oeh0d+90dd5mKVVgpF6pa0qaX69ztEsZ4ZNgJU8coypxc7E4OgAP3J/nK8APWqUsMCtvcstao+ArLOuxcpXf5pAdokzbnp1nrNpi54VWnLW5u4zaH7b6+qVy+BCgotMrNTg/f6HutZArM2Jv91quuRqsNDO7O6BveFtt9Nor92gzuPc9e3D4vOaz9+23eQ6m+OxzeBnj5r1X68iAAATH0lEQVR4nO1di1/ayNqeZC4GMBMzMAmmRIxKDSShqPSi8LXds61nK+KxXcVbe7rd//+P+GZABZUg7Knl8uPZ33a3GmDy8F6eeeedCQBzzDHHHHPMMcccc8wxxxw/EUT8M0cXCBOwvbMtWKHquMcyISAaWKg+X01UiwDTcQ9mMkCA/3KZuzpzN1+WyNyDJLTt5aTJVhPcZJnlbazicQ9o7CAAMc5YorpdzbmcLyMAxz2kCQBaZu6r14Dg12+YnkFkzglAKKMn14XBIPw+aS4DNA+zt5xAyYk750RCcpJrcwLnnNwALZvurg9UUNp1WQKp83gCAcpwzjO/+xtCpPBMdp535CxnI8WZmdxMFhhPbcz1SQfbexmTMcYTe0vjHsqkAGmwtsZMd60GtLmRdKAipNUXzed1gDEa92AmB2QhZaYWxj2KyQJZWJxzcg9zTh5izslDzDwnKlBHrZb9A07ER0xPUU5KjOzrbcHN8AXn0TnBYHs7CwiGcPLTNwHZpfXdxdz/7aARRjsqJ0hDb9/lErvrS1kwBaX+3w5yGdc0zczLEV40up3s5Bhz3WRSr404vl8NQtXSMmcu4ys6z+wATIb8EkfjRNjfTpKZK5ybgpdS+weTCwq2c0xPvXn7PqGbuZeIDDnakTgR7/oyxczE+7eHi5zltv/xaH8NKNhwXVZEBPyWYCxXG/YbhKNwAkFtUTcTNQJwQ2d8Y5Rg/usBEf6XW/gIJDk14UBvhy0QkXpCTwxbKEBgp8B4TWZ8us/YG6BOdLmSNJOuLDirCCwkeebD0AvjxdRqojjktYjUUiy3JKhAYD1jLjYne/kD1pLuSk3YCwW/ZwqZ5rCcEPrbXm3Y2gnCQVJf2ZDVbFzLmMnhmR8PaiJFsromJNW/9cIegsN6uryrYa+FAO0zvgcgJHXdNHMfJlui4PTHnMjC9YX3H02W3HiaLxAibSPDV6vvi/VN00xW0xNd1iYQpaurQp9kNplpFvZ8/BTfIFH9fZfpyysZ5nK3mtXQpFcs0e6KLgvOqy7L7Zewqv5sQQVh6VCowhyXde3MbnaSjeQaOL2bLORerO3IsvO/sz9dZELsH66abO2PN4mkm9vN/nTOnwBCZW58qpUQEHqK8Vf+4/KeiGAp/yv0BnnUC1RByYrpHhQhCmp/b2ThRGuTeyC4qHM9s1fCAD1CC6Uo2wZ6fLGY+IcZQUlj2FnDZEEFxQMxdz0sPZYqsYZtTQJr9iNWJR2nwJigZDo5EZbSWOOme/j1kYwclJ/lr1EuPfKW/qEIrGsNjKaTEomiiCnJwxIZ4D4qaUSe0oZhhI1B/BFYeiUC98HZlBpJG1hrHDDOX5UG3IMK6pFi3HBSj+cEEek4uqkXp9VxOiCgqXNz9VUpPkyooBJZ1jUnRmVAPzUuCcfhB82pZkSCyECb+RQrvwnSrpyO6yiWp2zhAUL9U5K5wkqeZqC/EJA0zNVkNfbbV1Xt6JYTRznCsRoMgf+8kJRMPSdCUuFmdX/pRoup3cQMhXARfyD/WLnlxDj+jOG919++gizsVosAPaZ2pgFqj7ynWE3f/FQINNsOKl/ySg+c/JdKgDSh4jqXQSzQtQw02WWB4dEtlyJSqlxbDFKJHWydRo7jWL2kGJ4Xtra+3vCgElgJSM9bzQgnN1aiUhyUvSOEkVzXRI3z0DMMkXJ6OTHEXwzHC08aRNYZqJ09CvMBvJW3055y7kJVkdY4dhTjoqQhop1dhI4SCyuKLs4gJSR9oRhROdBmxDweAJf+FILV8Y6/av5J6DmKE8eKFSnSVnxcOvaEc3nlYAqKJP8AlAR/etIzLCM8jRTL8mIpEbJWEGZ4lgw3lmFERjkYdkVxqpAOyrccDPCaO7i+zlKc48/abIUSIEtBIrwOyUQfs/G842DqtdpdEAgbIjLE37QhfcoyjDhzEZZSnjFSCNW2onhKpEYxOgYRCyv8Me67+LkQE73s0YAoIibEoScQT4nhfJmxeCKUBkQtz3rIirAPJ3x2fvKj8q1ydXWRF9Q4zgMfMhzlND2De49tPy/mePe9xotaPwIfdwQ/TPvBViuy7huMYXllf7aiSRsqts+E+rpHSXhepCQtpoPtO0YIaxgFJ9E96oRCadgzaCZE3NOl4nW/esMR2q1pq4hKIkqNRqOEMKZUzJ2bQvcLm7r1NEO5xGjiF0BHB0TE74knjmdYUUVQgDW/fnSaL0dRVC6fHp2lMUwj8j0yvF5OjBKdQd8RX/+5Yt06hZX/6zKAGKv+VT6MnBvt4nj5/2Y1m+CgpXi3FwuTOdemab1vWNhnoeVEt9+800prKkRbUdSe9nTu37EsxShvZTVK/AvBk3HzYyM8m8XjHezLbuR0PK/lp1G6dNlHtBhGKxCJKH3q9Yg4ozWDhkLOuvUSIeOPfQ3Y9eheke2GsbCuUVw6Nm5DsmKE9VmLsQTRix6L8GSVyP4eKn3lvKAsqtjIFhPp29dYyrlISTNVRaFaM+pxhKhCKP5WjhX7llOuYxVUwp6fRU088naPSYaK7KseZe+da1j96imxpIhLowAj+7RbcTG8q6EbBqcCBOFnSv46OhhKGFCcvjSMfsHkmgJLaaUxanbzsZD3CM+S70ARYbtG4J1gal+FfcnowtvCSDvpsaRwxoqyeKt7c0bYxFoQH0xumFNKwsF6mPO2psF5bmXUwKYRADHBF94tJcqljfCVEu84HeSVK5tqp7cCxvC+INheE4w1F9qZSoJB7S5PDQQ6bWhZENsHS+RtQO1rtxhrhBURTZ494jnywrJPcG/qKQc2xRTHbh+DhFz3xaljm0RD7f1aB7XYrgHgB8XK1pFQJDd35kQBss+8PiTcZUQEEKHcgm7dQMyFjiqVehDb4EPBbzfjGc9ODUIBbqRczrnJeSKuDY1ky2GoeJ7VTcTOMVbvxM44ThzlSEPp455po5gqOqH3LNvvGxD+gr+mCmIwAs8bcCyxh6q4WmAsmUhwc+VTzEKucJL7YcM5xwi3hlnhcVoa0s57LcqQNfxn6X4BBUMK/87pPJlJcsaqcCx5G5HtBC/sr/++vs/Zi5j9SP04uQLUfzagQt+9Ml8SwfgBe/05EdFkKVVw92piPK7+fBuMo79ao4fczQgu8FJS53tLCwtLXTSveyVkML17U4ZTgdgftGrRReRTXInlhNDmUi/qe6yQWiIALyQ4O8yOY6MTXn9hujvtjpC3KybL5XKJWyTffejY7kNOLOUbRoE3DCVO1KTwWywnuPbuzocmXMZ3ZEOHGI+eq2m/nhIAqqs81ZAtFHYjaep3wPjf7e3o/TgxvmHQHJKTIonnBINPIpyxOx+bOLNVjEAxoReq46CErGfYyo5QRxTsZDiT1nGDTDIRaydG+A3T4mPCvsNJ2BjACcQfup+YFKE+wdjqtZ1wllwfR+LRsq84WxTxhIh4srp3x7WXGrQT4h5yoigVTEsDFkp77aSEYcWL4QQR0rgfT3iqTgBZeO7yV2PZ1oPx9iLX90Te2eNyF+cdEAyuOTHuc+JdYZTN37/RfvDKaQyu4jgRn9GrUwgBCyk5nvX1PZ2ltsk45L34zCrTeUZuuHI/YQQJvIGUlO2wT2QubqeYbkb2LghKXw5lJ5dpTL/0Xil7lgQn11y0Wb/9TETgJ64LweZKfSJS8VjkPWm8K7iua5puotTXUgkk2cjzotDzlB4di1T7ZKhcfKKp9LhnlUe+VRhFfXWsmEfAIMXlwQ4uTwXjmu+QdK09u9DXarC/94rvzw/qlcrRcQ8HVoC0etSPg3sIzygKuhcaRv5o63s98GOL1aRmisEIjCXA3gzienuW8Jz+v4eUUiGzcXCzHUWiQtPp8kMK7sOL0kKydb3OiXxbvJcaf4YbvBnPZJ9g0IEKuvUTxbrUEP6v94iUNQzvSuTby24rgncx7tv4ucDd9GEZXhNq/mOG4hhlH+Mg7PaieFtglpa9kLy52y5G50TL2lvewDqbJeaKGqAnXWuywuKEn0swIiC9qdpLyIIsuhzkOOLfyzTVvkY9P8nPxI6MWxAExZy/G0BaQsF8HlClFjZV/owJ7imeRELrzdTRsoSKzNOVKEZY0YDIx17+gcpt/9qynOi7mM197y7vKPkwwJN99suogJBedPtjLSMKbKR9L3tGv5ZYoVaj71gE2OOumVjO6UyteAHJCS729hUolz7B2kI56rOiYRjW8XeNaP6x1V1Dj8KGPVMRtj1D01pKTxeB18piRIJL2cLlWF1iHGkmraamYv/yr64NCTPRZrB7q3d5VN77RVYTU8QrMR9ybrSqIe3GiLYIpXb2oseCZJ/S7DEiNIp90rMhw3L+Og6EbrH9rfxt9HUcI8xvZaGWJY0/e5tky94XPCs7AXuhZb/2xAcZU8rfKU1DLV0/Oi1HYtarRK2jehbaiNqVctTjaCKNf56xpNOBSkjr7tYMJ2wFgCKqaQSVms1mKY2xjRGyv55Gitd7pXIJ4UwJtg7UNDkr3+ktNwxHCb80bRupErJfmKgI4+L5X56Tv3NlFDW0JzmaaZxQEbBLx/d6CRzZ7Omc/gjSVApUeUqOH1QuRci1err72qQoYkI4Y/syZEN9uqX0heOF+fOrSqVe+XF1/iyM2cRjtfCsJR4kp7h95zdyg7Ejy4peGEqCYsoqlvIlO+6b+Mkg6LvXvwlHtpVb7d2h7RBjGP1LCEbkzNg+LyHug0H7AR+H5ZUHHqEzhVDJ/7JvVNpJORjLAvDTgUCgakEn7ziG5SkxHtILcZ0UKe0NCiLvBDPYby/0ibCUzhaM8LSsRAO2TLadxXK88mm5nZQtp3yGpuG8vhGhUkza7mNExwH2TzxvcN2+fV4B9FtRx3Hs+Na+qYY86kMxwou0RlUanIcywwrRZtwTcnJS5CjRRaBhpPkXQu2WP9uz+ihFoduD6K8jROQUV8Nn56H34OgCIVdkzPHOz+z2AQUEHUm7mjlh3wXEzYq4V3mziGDNv2qF4d3A4gjtFrWufDEtlJZBBY+VAM/cA5/lJF+TN6iqSKUdRsTUhkJhKzSonPT0XQhfkucpUY0SguUBW8KkoCZe0vYcWWgT88UZKKRA3PhYLcY/CZF0z90SyejYl3d+d7n3+i+EFKvVRs85XNMLXDwovNiN/33P+WzCTo7ie2moPJ/toDEDlEB5iiyP6ymWZgS3buZ9IgldkdhSNAJ/50x+UJRHG04zLxAXddfkh0H8GY1YbrC+5sRxKgOW+nDpcIW5B00y3SEFFzcLbOWwBGPzhtBy9fC6cC84GbQ7FApSXJMdFKdhH08cVCKtxD0skUHCnARhp8dAiDVn0AmXIv0IUrhwHzwFPTf90XYcpgtKBspyIfnz+WfP5FnDx/lg8Fvi4NBlrt6Y2sV0mXHMlVelx47AxbYmT3WUB1Lb9sArEVRLh8w09eKUHfzY7veT28+Km8wUseTxs6M7hXsh0+gj7Il3xv7eCmN68aZkPR0HU0O08XetCbWGzkx26A91KnBb0alClj2q4aFwH/G+elHDzQ+fNsTkaQpIwdndBE8m1v5Y40w6zk83clg65CZfe/smkSzkqtkp4ASnP4oR67zAmOnuC8f5+ZyIlMwZ50zuyuDVmA7iyQGBfjVj6iu5RV0Me7/0JMUxCEp7rmnyRIYzfUWQMtmsUPQxo3O3Xny/W2CrG0/zIRDhjRXOquvF+oppruwOF7LGBUpqLxjbFMJLA/vyOU1D15XlvDk9tJehPcYPEdTA0oHu5ib7qYmCk6S++kEIdgo3WCFTiunDfwBIa/u/DesDKmgKY9yQ53vjHxm+MunPrmpk9NX2c9/wUrKwOPTzAUkxtTr08wEJ+JAzk0vtKtx6hmeakz3/oeQNX9lFVAWwxvnKztAvXEgVUsM+H5CCnVWWqclmBSg89BBNdLWWQPLHCl+uU0xqCZMlakM/C2/U50hy83kNYFrUZSSfaE4gBdsJzhJv3m6kCubiDqJDTtZGewYrQTviU1Lvd/6VaD9vdKJXCAklpU0hGliGmyy5A/CT2ImMKDs5k/FVua1rebJTcRvrLLfourr5/OUICxCjPr9YWEpSZ/pyLsfWJ1uxSRBNPuc6kXy3g0Y4anzkZzpraOddMvFxfSk9+hB/PZDcSOtvj3aIwujPuYZg6bUv1c+0rK1LAxlpqKNzMvuYc/IQc04eYs7JQ8w5uQco5nLFRffFElFn6pTL/wUIYVhP6YklotEpSaxPDw3W1hjT12qTPZv7ZSCIkKW9hFzIchP7dTDd6+M/B5iqGzl51NxBsmCu5jamu4/i5wASlOEu21wvbWSWGduc7ALRLwJCjBU++vKhs7ucLw9f1p5hIJRhq+vyaYh4PekugzkpHU5y6/J/5pzcAKnLZu69yD8IrCfNTTSL+0NHhIrQJmeHrxGm26+4uYgmu7r6S0AoZZzx5O52NcGYm0TDLpPNMijd3lxleiHHTJZj2+MezmQAodLLTddkppt8WZpPAiVUgDSwsJtbTVWLYPYeFvlPoSIMtndegydo4JlmTFMF/ldBBZPdHDDHHHPMMcccc8wxxxyTjv8H+yrz+Vshb5UAAAAASUVORK5CYII=;" vertex="1" parent="1">
          <mxGeometry x="417.5" y="332" width="55" height="36.6" as="geometry" />
        </mxCell>
        <mxCell id="3mXTTDO88YAGcUnz2wc8-88" value="" style="shape=image;verticalLabelPosition=bottom;labelBackgroundColor=default;verticalAlign=top;aspect=fixed;imageAspect=0;image=data:image/png,iVBORw0KGgoAAAANSUhEUgAAARMAAAC3CAMAAAAGjUrGAAABKVBMVEX///88o93//v////38//////v//v3T3+f///gASXAATHIASGsASmoEVnX9//07pN3O3OALVXsAVXj4/fYATnEAU3s8pNr///T1+vwAUW8/od1MqNsASnUAU3gAUHZLqtoAUH47ouMbYHuWr7yIq7kAVIIASWUAUm7q+fnW5+nr9PXd8/kzm9U3odY8nswARna42Oeh0d+90dd5mKVVgpF6pa0qaX69ztEsZ4ZNgJU8coypxc7E4OgAP3J/nK8APWqUsMCtvcstao+ArLOuxcpXf5pAdokzbnp1nrNpi54VWnLW5u4zaH7b6+qVy+BCgotMrNTg/f6HutZArM2Jv91quuRqsNDO7O6BveFtt9Nor92gzuPc9e3D4vOaz9+23eQ6m+OxzeBnj5r1X68iAAATH0lEQVR4nO1di1/ayNqeZC4GMBMzMAmmRIxKDSShqPSi8LXds61nK+KxXcVbe7rd//+P+GZABZUg7Knl8uPZ33a3GmDy8F6eeeedCQBzzDHHHHPMMcccc8wxxxw/EUT8M0cXCBOwvbMtWKHquMcyISAaWKg+X01UiwDTcQ9mMkCA/3KZuzpzN1+WyNyDJLTt5aTJVhPcZJnlbazicQ9o7CAAMc5YorpdzbmcLyMAxz2kCQBaZu6r14Dg12+YnkFkzglAKKMn14XBIPw+aS4DNA+zt5xAyYk750RCcpJrcwLnnNwALZvurg9UUNp1WQKp83gCAcpwzjO/+xtCpPBMdp535CxnI8WZmdxMFhhPbcz1SQfbexmTMcYTe0vjHsqkAGmwtsZMd60GtLmRdKAipNUXzed1gDEa92AmB2QhZaYWxj2KyQJZWJxzcg9zTh5izslDzDwnKlBHrZb9A07ER0xPUU5KjOzrbcHN8AXn0TnBYHs7CwiGcPLTNwHZpfXdxdz/7aARRjsqJ0hDb9/lErvrS1kwBaX+3w5yGdc0zczLEV40up3s5Bhz3WRSr404vl8NQtXSMmcu4ys6z+wATIb8EkfjRNjfTpKZK5ybgpdS+weTCwq2c0xPvXn7PqGbuZeIDDnakTgR7/oyxczE+7eHi5zltv/xaH8NKNhwXVZEBPyWYCxXG/YbhKNwAkFtUTcTNQJwQ2d8Y5Rg/usBEf6XW/gIJDk14UBvhy0QkXpCTwxbKEBgp8B4TWZ8us/YG6BOdLmSNJOuLDirCCwkeebD0AvjxdRqojjktYjUUiy3JKhAYD1jLjYne/kD1pLuSk3YCwW/ZwqZ5rCcEPrbXm3Y2gnCQVJf2ZDVbFzLmMnhmR8PaiJFsromJNW/9cIegsN6uryrYa+FAO0zvgcgJHXdNHMfJlui4PTHnMjC9YX3H02W3HiaLxAibSPDV6vvi/VN00xW0xNd1iYQpaurQp9kNplpFvZ8/BTfIFH9fZfpyysZ5nK3mtXQpFcs0e6KLgvOqy7L7Zewqv5sQQVh6VCowhyXde3MbnaSjeQaOL2bLORerO3IsvO/sz9dZELsH66abO2PN4mkm9vN/nTOnwBCZW58qpUQEHqK8Vf+4/KeiGAp/yv0BnnUC1RByYrpHhQhCmp/b2ThRGuTeyC4qHM9s1fCAD1CC6Uo2wZ6fLGY+IcZQUlj2FnDZEEFxQMxdz0sPZYqsYZtTQJr9iNWJR2nwJigZDo5EZbSWOOme/j1kYwclJ/lr1EuPfKW/qEIrGsNjKaTEomiiCnJwxIZ4D4qaUSe0oZhhI1B/BFYeiUC98HZlBpJG1hrHDDOX5UG3IMK6pFi3HBSj+cEEek4uqkXp9VxOiCgqXNz9VUpPkyooBJZ1jUnRmVAPzUuCcfhB82pZkSCyECb+RQrvwnSrpyO6yiWp2zhAUL9U5K5wkqeZqC/EJA0zNVkNfbbV1Xt6JYTRznCsRoMgf+8kJRMPSdCUuFmdX/pRoup3cQMhXARfyD/WLnlxDj+jOG919++gizsVosAPaZ2pgFqj7ynWE3f/FQINNsOKl/ySg+c/JdKgDSh4jqXQSzQtQw02WWB4dEtlyJSqlxbDFKJHWydRo7jWL2kGJ4Xtra+3vCgElgJSM9bzQgnN1aiUhyUvSOEkVzXRI3z0DMMkXJ6OTHEXwzHC08aRNYZqJ09CvMBvJW3055y7kJVkdY4dhTjoqQhop1dhI4SCyuKLs4gJSR9oRhROdBmxDweAJf+FILV8Y6/av5J6DmKE8eKFSnSVnxcOvaEc3nlYAqKJP8AlAR/etIzLCM8jRTL8mIpEbJWEGZ4lgw3lmFERjkYdkVxqpAOyrccDPCaO7i+zlKc48/abIUSIEtBIrwOyUQfs/G842DqtdpdEAgbIjLE37QhfcoyjDhzEZZSnjFSCNW2onhKpEYxOgYRCyv8Me67+LkQE73s0YAoIibEoScQT4nhfJmxeCKUBkQtz3rIirAPJ3x2fvKj8q1ydXWRF9Q4zgMfMhzlND2De49tPy/mePe9xotaPwIfdwQ/TPvBViuy7huMYXllf7aiSRsqts+E+rpHSXhepCQtpoPtO0YIaxgFJ9E96oRCadgzaCZE3NOl4nW/esMR2q1pq4hKIkqNRqOEMKZUzJ2bQvcLm7r1NEO5xGjiF0BHB0TE74knjmdYUUVQgDW/fnSaL0dRVC6fHp2lMUwj8j0yvF5OjBKdQd8RX/+5Yt06hZX/6zKAGKv+VT6MnBvt4nj5/2Y1m+CgpXi3FwuTOdemab1vWNhnoeVEt9+800prKkRbUdSe9nTu37EsxShvZTVK/AvBk3HzYyM8m8XjHezLbuR0PK/lp1G6dNlHtBhGKxCJKH3q9Yg4ozWDhkLOuvUSIeOPfQ3Y9eheke2GsbCuUVw6Nm5DsmKE9VmLsQTRix6L8GSVyP4eKn3lvKAsqtjIFhPp29dYyrlISTNVRaFaM+pxhKhCKP5WjhX7llOuYxVUwp6fRU088naPSYaK7KseZe+da1j96imxpIhLowAj+7RbcTG8q6EbBqcCBOFnSv46OhhKGFCcvjSMfsHkmgJLaaUxanbzsZD3CM+S70ARYbtG4J1gal+FfcnowtvCSDvpsaRwxoqyeKt7c0bYxFoQH0xumFNKwsF6mPO2psF5bmXUwKYRADHBF94tJcqljfCVEu84HeSVK5tqp7cCxvC+INheE4w1F9qZSoJB7S5PDQQ6bWhZENsHS+RtQO1rtxhrhBURTZ494jnywrJPcG/qKQc2xRTHbh+DhFz3xaljm0RD7f1aB7XYrgHgB8XK1pFQJDd35kQBss+8PiTcZUQEEKHcgm7dQMyFjiqVehDb4EPBbzfjGc9ODUIBbqRczrnJeSKuDY1ky2GoeJ7VTcTOMVbvxM44ThzlSEPp455po5gqOqH3LNvvGxD+gr+mCmIwAs8bcCyxh6q4WmAsmUhwc+VTzEKucJL7YcM5xwi3hlnhcVoa0s57LcqQNfxn6X4BBUMK/87pPJlJcsaqcCx5G5HtBC/sr/++vs/Zi5j9SP04uQLUfzagQt+9Ml8SwfgBe/05EdFkKVVw92piPK7+fBuMo79ao4fczQgu8FJS53tLCwtLXTSveyVkML17U4ZTgdgftGrRReRTXInlhNDmUi/qe6yQWiIALyQ4O8yOY6MTXn9hujvtjpC3KybL5XKJWyTffejY7kNOLOUbRoE3DCVO1KTwWywnuPbuzocmXMZ3ZEOHGI+eq2m/nhIAqqs81ZAtFHYjaep3wPjf7e3o/TgxvmHQHJKTIonnBINPIpyxOx+bOLNVjEAxoReq46CErGfYyo5QRxTsZDiT1nGDTDIRaydG+A3T4mPCvsNJ2BjACcQfup+YFKE+wdjqtZ1wllwfR+LRsq84WxTxhIh4srp3x7WXGrQT4h5yoigVTEsDFkp77aSEYcWL4QQR0rgfT3iqTgBZeO7yV2PZ1oPx9iLX90Te2eNyF+cdEAyuOTHuc+JdYZTN37/RfvDKaQyu4jgRn9GrUwgBCyk5nvX1PZ2ltsk45L34zCrTeUZuuHI/YQQJvIGUlO2wT2QubqeYbkb2LghKXw5lJ5dpTL/0Xil7lgQn11y0Wb/9TETgJ64LweZKfSJS8VjkPWm8K7iua5puotTXUgkk2cjzotDzlB4di1T7ZKhcfKKp9LhnlUe+VRhFfXWsmEfAIMXlwQ4uTwXjmu+QdK09u9DXarC/94rvzw/qlcrRcQ8HVoC0etSPg3sIzygKuhcaRv5o63s98GOL1aRmisEIjCXA3gzienuW8Jz+v4eUUiGzcXCzHUWiQtPp8kMK7sOL0kKydb3OiXxbvJcaf4YbvBnPZJ9g0IEKuvUTxbrUEP6v94iUNQzvSuTby24rgncx7tv4ucDd9GEZXhNq/mOG4hhlH+Mg7PaieFtglpa9kLy52y5G50TL2lvewDqbJeaKGqAnXWuywuKEn0swIiC9qdpLyIIsuhzkOOLfyzTVvkY9P8nPxI6MWxAExZy/G0BaQsF8HlClFjZV/owJ7imeRELrzdTRsoSKzNOVKEZY0YDIx17+gcpt/9qynOi7mM197y7vKPkwwJN99suogJBedPtjLSMKbKR9L3tGv5ZYoVaj71gE2OOumVjO6UyteAHJCS729hUolz7B2kI56rOiYRjW8XeNaP6x1V1Dj8KGPVMRtj1D01pKTxeB18piRIJL2cLlWF1iHGkmraamYv/yr64NCTPRZrB7q3d5VN77RVYTU8QrMR9ybrSqIe3GiLYIpXb2oseCZJ/S7DEiNIp90rMhw3L+Og6EbrH9rfxt9HUcI8xvZaGWJY0/e5tky94XPCs7AXuhZb/2xAcZU8rfKU1DLV0/Oi1HYtarRK2jehbaiNqVctTjaCKNf56xpNOBSkjr7tYMJ2wFgCKqaQSVms1mKY2xjRGyv55Gitd7pXIJ4UwJtg7UNDkr3+ktNwxHCb80bRupErJfmKgI4+L5X56Tv3NlFDW0JzmaaZxQEbBLx/d6CRzZ7Omc/gjSVApUeUqOH1QuRci1err72qQoYkI4Y/syZEN9uqX0heOF+fOrSqVe+XF1/iyM2cRjtfCsJR4kp7h95zdyg7Ejy4peGEqCYsoqlvIlO+6b+Mkg6LvXvwlHtpVb7d2h7RBjGP1LCEbkzNg+LyHug0H7AR+H5ZUHHqEzhVDJ/7JvVNpJORjLAvDTgUCgakEn7ziG5SkxHtILcZ0UKe0NCiLvBDPYby/0ibCUzhaM8LSsRAO2TLadxXK88mm5nZQtp3yGpuG8vhGhUkza7mNExwH2TzxvcN2+fV4B9FtRx3Hs+Na+qYY86kMxwou0RlUanIcywwrRZtwTcnJS5CjRRaBhpPkXQu2WP9uz+ihFoduD6K8jROQUV8Nn56H34OgCIVdkzPHOz+z2AQUEHUm7mjlh3wXEzYq4V3mziGDNv2qF4d3A4gjtFrWufDEtlJZBBY+VAM/cA5/lJF+TN6iqSKUdRsTUhkJhKzSonPT0XQhfkucpUY0SguUBW8KkoCZe0vYcWWgT88UZKKRA3PhYLcY/CZF0z90SyejYl3d+d7n3+i+EFKvVRs85XNMLXDwovNiN/33P+WzCTo7ie2moPJ/toDEDlEB5iiyP6ymWZgS3buZ9IgldkdhSNAJ/50x+UJRHG04zLxAXddfkh0H8GY1YbrC+5sRxKgOW+nDpcIW5B00y3SEFFzcLbOWwBGPzhtBy9fC6cC84GbQ7FApSXJMdFKdhH08cVCKtxD0skUHCnARhp8dAiDVn0AmXIv0IUrhwHzwFPTf90XYcpgtKBspyIfnz+WfP5FnDx/lg8Fvi4NBlrt6Y2sV0mXHMlVelx47AxbYmT3WUB1Lb9sArEVRLh8w09eKUHfzY7veT28+Km8wUseTxs6M7hXsh0+gj7Il3xv7eCmN68aZkPR0HU0O08XetCbWGzkx26A91KnBb0alClj2q4aFwH/G+elHDzQ+fNsTkaQpIwdndBE8m1v5Y40w6zk83clg65CZfe/smkSzkqtkp4ASnP4oR67zAmOnuC8f5+ZyIlMwZ50zuyuDVmA7iyQGBfjVj6iu5RV0Me7/0JMUxCEp7rmnyRIYzfUWQMtmsUPQxo3O3Xny/W2CrG0/zIRDhjRXOquvF+oppruwOF7LGBUpqLxjbFMJLA/vyOU1D15XlvDk9tJehPcYPEdTA0oHu5ib7qYmCk6S++kEIdgo3WCFTiunDfwBIa/u/DesDKmgKY9yQ53vjHxm+MunPrmpk9NX2c9/wUrKwOPTzAUkxtTr08wEJ+JAzk0vtKtx6hmeakz3/oeQNX9lFVAWwxvnKztAvXEgVUsM+H5CCnVWWqclmBSg89BBNdLWWQPLHCl+uU0xqCZMlakM/C2/U50hy83kNYFrUZSSfaE4gBdsJzhJv3m6kCubiDqJDTtZGewYrQTviU1Lvd/6VaD9vdKJXCAklpU0hGliGmyy5A/CT2ImMKDs5k/FVua1rebJTcRvrLLfourr5/OUICxCjPr9YWEpSZ/pyLsfWJ1uxSRBNPuc6kXy3g0Y4anzkZzpraOddMvFxfSk9+hB/PZDcSOtvj3aIwujPuYZg6bUv1c+0rK1LAxlpqKNzMvuYc/IQc04eYs7JQ8w5uQco5nLFRffFElFn6pTL/wUIYVhP6YklotEpSaxPDw3W1hjT12qTPZv7ZSCIkKW9hFzIchP7dTDd6+M/B5iqGzl51NxBsmCu5jamu4/i5wASlOEu21wvbWSWGduc7ALRLwJCjBU++vKhs7ucLw9f1p5hIJRhq+vyaYh4PekugzkpHU5y6/J/5pzcAKnLZu69yD8IrCfNTTSL+0NHhIrQJmeHrxGm26+4uYgmu7r6S0AoZZzx5O52NcGYm0TDLpPNMijd3lxleiHHTJZj2+MezmQAodLLTddkppt8WZpPAiVUgDSwsJtbTVWLYPYeFvlPoSIMtndegydo4JlmTFMF/ldBBZPdHDDHHHPMMcccc8wxxxyTjv8H+yrz+Vshb5UAAAAASUVORK5CYII=;" vertex="1" parent="1">
          <mxGeometry x="420" y="492" width="55" height="36.6" as="geometry" />
        </mxCell>
      </root>
    </mxGraphModel>
  </diagram>
</mxfile>
